<svg id="kity_svg_6" xmlns="http://www.w3.org/2000/svg" xmlns:xlink="http://www.w3.org/1999/xlink" version="1.1" width="1532" height="1885" style="background: rgb(251, 251, 251); visibility: visible;" viewBox="0 0 1532 1885"><defs id="kity_defs_7"><linearGradient id="kity_linearGradient_17" x1="0" y1="0" x2="0" y2="1"><stop id="kity_stop_18" offset="0" stop-color="rgb(255, 255, 255)"></stop><stop id="kity_stop_19" offset="1" stop-color="rgb(204, 204, 204)"></stop></linearGradient><marker id="kity_marker_2" orient="auto" refX="6" refY="0" viewBox="-7 -7 14 14" markerWidth="7" markerHeight="7" markerUnits="userSpaceOnUse"><path id="kity_path_3" fill="rgb(115, 161, 191)" stroke="none" d="M6,0A6,6,0,1,1,-6,0A6,6,0,1,1,6,0"></path></marker></defs><g id="kity_g_8"><g id="minder1" text-rendering="optimize-speed"><g id="minder_connect_group1"><path id="kity_path_31" fill="none" stroke="rgb(115, 161, 191)" stroke-width="1" d="M1243.5,1159.5A170,33,0,0,1,1413.5,1126.5"></path><path id="kity_path_33" fill="none" stroke="rgb(115, 161, 191)" stroke-width="1" d="M1243.5,1159.5A170,33,0,0,0,1413.5,1192.5"></path><path id="kity_path_35" fill="none" stroke="rgb(115, 161, 191)" stroke-width="1" d="M1243.5,1159.5A383,530.5,0,0,0,860.5,629"></path><path id="kity_path_37" fill="none" stroke="rgb(115, 161, 191)" stroke-width="1" d="M618.5,629C603.5,629,603.5,45.5,588.5,45.5L397.5,45.5"></path><path id="kity_path_39" fill="none" stroke="rgb(115, 161, 191)" stroke-width="1" d="M618.5,629C603.5,629,603.5,97.5,588.5,97.5L444.5,97.5"></path><path id="kity_path_41" fill="none" stroke="rgb(115, 161, 191)" stroke-width="1" d="M618.5,629C603.5,629,603.5,175.5,588.5,175.5L516.5,175.5"></path><path id="kity_path_43" fill="none" stroke="rgb(115, 161, 191)" stroke-width="1" d="M516.5,175.5C501.5,175.5,501.5,149.5,486.5,149.5L335.5,149.5"></path><path id="kity_path_45" fill="none" stroke="rgb(115, 161, 191)" stroke-width="1" d="M516.5,175.5C501.5,175.5,501.5,201.5,486.5,201.5L338.5,201.5"></path><path id="kity_path_47" fill="none" stroke="rgb(115, 161, 191)" stroke-width="1" d="M618.5,629C603.5,629,603.5,253.5,588.5,253.5L355.5,253.5"></path><path id="kity_path_49" fill="none" stroke="rgb(115, 161, 191)" stroke-width="1" d="M355.5,253.5C340.5,253.5,340.5,253.5,325.5,253.5L142.5,253.5"></path><path id="kity_path_51" fill="none" stroke="rgb(115, 161, 191)" stroke-width="1" d="M618.5,629C603.5,629,603.5,331.5,588.5,331.5L472.5,331.5"></path><path id="kity_path_53" fill="none" stroke="rgb(115, 161, 191)" stroke-width="1" d="M472.5,331.5C457.5,331.5,457.5,305.5,442.5,305.5L268.5,305.5"></path><path id="kity_path_55" fill="none" stroke="rgb(115, 161, 191)" stroke-width="1" d="M472.5,331.5C457.5,331.5,457.5,357.5,442.5,357.5L259.5,357.5"></path><path id="kity_path_57" fill="none" stroke="rgb(115, 161, 191)" stroke-width="1" d="M618.5,629C603.5,629,603.5,409.5,588.5,409.5L444.5,409.5"></path><path id="kity_path_59" fill="none" stroke="rgb(115, 161, 191)" stroke-width="1" d="M618.5,629C603.5,629,603.5,461.5,588.5,461.5L411.5,461.5"></path><path id="kity_path_61" fill="none" stroke="rgb(115, 161, 191)" stroke-width="1" d="M618.5,629C603.5,629,603.5,513.5,588.5,513.5L423.5,513.5"></path><path id="kity_path_63" fill="none" stroke="rgb(115, 161, 191)" stroke-width="1" d="M618.5,629C603.5,629,603.5,565.5,588.5,565.5L391.5,565.5"></path><path id="kity_path_65" fill="none" stroke="rgb(115, 161, 191)" stroke-width="1" d="M618.5,629C603.5,629,603.5,617.5,588.5,617.5L451.5,617.5"></path><path id="kity_path_67" fill="none" stroke="rgb(115, 161, 191)" stroke-width="1" d="M618.5,629C603.5,629,603.5,669.5,588.5,669.5L277.5,669.5"></path><path id="kity_path_69" fill="none" stroke="rgb(115, 161, 191)" stroke-width="1" d="M618.5,629C603.5,629,603.5,721.5,588.5,721.5L478.5,721.5"></path><path id="kity_path_71" fill="none" stroke="rgb(115, 161, 191)" stroke-width="1" d="M618.5,629C603.5,629,603.5,773.5,588.5,773.5L416.5,773.5"></path><path id="kity_path_73" fill="none" stroke="rgb(115, 161, 191)" stroke-width="1" d="M618.5,629C603.5,629,603.5,864.5,588.5,864.5L474.5,864.5"></path><path id="kity_path_75" fill="none" stroke="rgb(115, 161, 191)" stroke-width="1" d="M474.5,864.5C459.5,864.5,459.5,825.5,444.5,825.5L365.5,825.5"></path><path id="kity_path_77" fill="none" stroke="rgb(115, 161, 191)" stroke-width="1" d="M474.5,864.5C459.5,864.5,459.5,903.5,444.5,903.5L282.5,903.5"></path><path id="kity_path_79" fill="none" stroke="rgb(115, 161, 191)" stroke-width="1" d="M282.5,903.5C267.5,903.5,267.5,877.5,252.5,877.5L20.5,877.5"></path><path id="kity_path_81" fill="none" stroke="rgb(115, 161, 191)" stroke-width="1" d="M282.5,903.5C267.5,903.5,267.5,929.5,252.5,929.5L100.5,929.5"></path><path id="kity_path_83" fill="none" stroke="rgb(115, 161, 191)" stroke-width="1" d="M618.5,629C603.5,629,603.5,1007.5,588.5,1007.5L342.5,1007.5"></path><path id="kity_path_85" fill="none" stroke="rgb(115, 161, 191)" stroke-width="1" d="M342.5,1007.5C327.5,1007.5,327.5,981.5,312.5,981.5L172.5,981.5"></path><path id="kity_path_87" fill="none" stroke="rgb(115, 161, 191)" stroke-width="1" d="M342.5,1007.5C327.5,1007.5,327.5,1033.5,312.5,1033.5L227.5,1033.5"></path><path id="kity_path_89" fill="none" stroke="rgb(115, 161, 191)" stroke-width="1" d="M618.5,629C603.5,629,603.5,1111.5,588.5,1111.5L456.5,1111.5"></path><path id="kity_path_91" fill="none" stroke="rgb(115, 161, 191)" stroke-width="1" d="M456.5,1111.5C441.5,1111.5,441.5,1085.5,426.5,1085.5L321.5,1085.5"></path><path id="kity_path_93" fill="none" stroke="rgb(115, 161, 191)" stroke-width="1" d="M321.5,1085.5C306.5,1085.5,306.5,1085.5,291.5,1085.5L85.5,1085.5"></path><path id="kity_path_95" fill="none" stroke="rgb(115, 161, 191)" stroke-width="1" d="M456.5,1111.5C441.5,1111.5,441.5,1137.5,426.5,1137.5L310.5,1137.5"></path><path id="kity_path_97" fill="none" stroke="rgb(115, 161, 191)" stroke-width="1" d="M310.5,1137.5C295.5,1137.5,295.5,1137.5,280.5,1137.5L142.5,1137.5"></path><path id="kity_path_99" fill="none" stroke="rgb(115, 161, 191)" stroke-width="1" d="M618.5,629C603.5,629,603.5,1241.5,588.5,1241.5L491.5,1241.5"></path><path id="kity_path_101" fill="none" stroke="rgb(115, 161, 191)" stroke-width="1" d="M491.5,1241.5C476.5,1241.5,476.5,1189.5,461.5,1189.5L137.5,1189.5"></path><path id="kity_path_103" fill="none" stroke="rgb(115, 161, 191)" stroke-width="1" d="M491.5,1241.5C476.5,1241.5,476.5,1241.5,461.5,1241.5L369.5,1241.5"></path><path id="kity_path_105" fill="none" stroke="rgb(115, 161, 191)" stroke-width="1" d="M491.5,1241.5C476.5,1241.5,476.5,1293.5,461.5,1293.5L386.5,1293.5"></path><path id="kity_path_107" fill="none" stroke="rgb(115, 161, 191)" stroke-width="1" d="M1243.5,1159.5A170,490,0,0,1,1073.5,1649.5"></path><path id="kity_path_109" fill="none" stroke="rgb(115, 161, 191)" stroke-width="1" d="M1003.5,1649.5C988.5,1649.5,988.5,1553.5,973.5,1553.5L919.5,1553.5"></path><path id="kity_path_111" fill="none" stroke="rgb(115, 161, 191)" stroke-width="1" d="M919.5,1553.5C904.5,1553.5,904.5,1475.5,889.5,1475.5L809.5,1475.5"></path><path id="kity_path_113" fill="none" stroke="rgb(115, 161, 191)" stroke-width="1" d="M919.5,1553.5C874.5,1553.5,874.5,1553.5,829.5,1553.5L746.5,1553.5"></path><path id="kity_path_115" fill="none" stroke="rgb(115, 161, 191)" stroke-width="1" d="M746.5,1553.5C731.5,1553.5,731.5,1527.5,716.5,1527.5L640.5,1527.5"></path><path id="kity_path_117" fill="none" stroke="rgb(115, 161, 191)" stroke-width="1" d="M746.5,1553.5C731.5,1553.5,731.5,1579.5,716.5,1579.5L587.5,1579.5"></path><path id="kity_path_119" fill="none" stroke="rgb(115, 161, 191)" stroke-width="1" d="M919.5,1553.5C904.5,1553.5,904.5,1631.5,889.5,1631.5L777.5,1631.5"></path><path id="kity_path_121" fill="none" stroke="rgb(115, 161, 191)" stroke-width="1" d="M1003.5,1649.5C988.5,1649.5,988.5,1774.5,973.5,1774.5L919.5,1774.5"></path><path id="kity_path_123" fill="none" stroke="rgb(115, 161, 191)" stroke-width="1" d="M919.5,1774.5C904.5,1774.5,904.5,1774.5,889.5,1774.5L751.5,1774.5"></path><path id="kity_path_125" fill="none" stroke="rgb(115, 161, 191)" stroke-width="1" d="M751.5,1774.5C736.5,1774.5,736.5,1709.5,721.5,1709.5L642.5,1709.5"></path><path id="kity_path_127" fill="none" stroke="rgb(115, 161, 191)" stroke-width="1" d="M642.5,1709.5C627.5,1709.5,627.5,1683.5,612.5,1683.5L550.5,1683.5"></path><path id="kity_path_129" fill="none" stroke="rgb(115, 161, 191)" stroke-width="1" d="M642.5,1709.5C627.5,1709.5,627.5,1735.5,612.5,1735.5L541.5,1735.5"></path><path id="kity_path_131" fill="none" stroke="rgb(115, 161, 191)" stroke-width="1" d="M751.5,1774.5C737.5,1774.5,737.5,1813.5,723.5,1813.5L599.5,1813.5"></path><path id="kity_path_133" fill="none" stroke="rgb(115, 161, 191)" stroke-width="1" d="M599.5,1813.5C584.5,1813.5,584.5,1761.5,569.5,1761.5L516.5,1761.5"></path><path id="kity_path_135" fill="none" stroke="rgb(115, 161, 191)" stroke-width="1" d="M599.5,1813.5C584.5,1813.5,584.5,1813.5,569.5,1813.5L482.5,1813.5"></path><path id="kity_path_137" fill="none" stroke="rgb(115, 161, 191)" stroke-width="1" d="M599.5,1813.5C584.5,1813.5,584.5,1865.5,569.5,1865.5L475.5,1865.5"></path></g><g id="minder_node1"><path id="node_outline1" fill="rgb(115, 161, 191)" stroke="rgb(115, 161, 191)" d="M1196.5,1139.5h94a5,5,0,0,1,5,5v30a5,5,0,0,1,-5,5h-94a5,5,0,0,1,-5,-5v-30a5,5,0,0,1,5,-5z" stroke-width="3"></path><g id="node_text1" fill="white"><text id="kity_text_22" text-rendering="inherit" font-size="16" dy=".8em" y="1149.0999999046326" x="1215.5">nlp进阶</text></g></g><g id="kity_g_12"><path id="kity_path_13" fill="none" stroke="none" d="M1215.5,1159.5h0v0h0z"></path></g><g id="kity_g_14"><path id="kity_path_15" fill="none" stroke="none" d="M1215.5,1159.5h0v0h0z"></path><path id="kity_path_16" fill="none" stroke="none"></path></g><g id="minder_node2"><g id="node_expander1" style="cursor: pointer;" display="none"><path id="kity_path_302" fill="white" stroke="gray" d="M1414.5,1126.5A6,6,0,1,1,1402.5,1126.5A6,6,0,1,1,1414.5,1126.5"></path><path id="kity_path_303" fill="none" stroke="gray"></path></g><path id="node_outline2" fill="rgb(238, 243, 246)" stroke="rgb(115, 161, 191)" d="M1418.5,1113.5h91a3,3,0,0,1,3,3v20a3,3,0,0,1,-3,3h-91a3,3,0,0,1,-3,-3v-20a3,3,0,0,1,3,-3z" stroke-width="1"></path><g id="node_text2" fill="black"><text id="kity_text_139" text-rendering="inherit" font-size="14" dy=".8em" y="1117.4000000953674" x="1435.5">分支主题</text></g></g><g id="minder_node3"><g id="node_expander2" style="cursor: pointer;" display="none"><path id="kity_path_305" fill="white" stroke="gray" d="M1414.5,1192.5A6,6,0,1,1,1402.5,1192.5A6,6,0,1,1,1414.5,1192.5"></path><path id="kity_path_306" fill="none" stroke="gray"></path></g><path id="node_outline3" fill="rgb(238, 243, 246)" stroke="rgb(115, 161, 191)" d="M1418.5,1179.5h91a3,3,0,0,1,3,3v20a3,3,0,0,1,-3,3h-91a3,3,0,0,1,-3,-3v-20a3,3,0,0,1,3,-3z" stroke-width="1"></path><g id="node_text3" fill="black"><text id="kity_text_141" text-rendering="inherit" font-size="14" dy=".8em" y="1183.4000000953674" x="1435.5">分支主题</text></g></g><g id="minder_node4"><g id="node_expander38" style="cursor: pointer;"><path id="kity_path_413" fill="white" stroke="gray" d="M871.5,629A6,6,0,1,1,859.5,629A6,6,0,1,1,871.5,629"></path><path id="kity_path_414" fill="none" stroke="gray" d="M861,629L870,629"></path></g><path id="node_outline39" fill="rgb(238, 243, 246)" stroke="rgb(115, 161, 191)" d="M621.5,536.5h234a3,3,0,0,1,3,3v179a3,3,0,0,1,-3,3h-234a3,3,0,0,1,-3,-3v-179a3,3,0,0,1,3,-3z" stroke-width="1"></path><g id="node_text39" fill="black"><text id="kity_text_213" text-rendering="inherit" font-size="14" dy=".8em" y="699.4000000953674" x="708.5">nlp tasks</text></g><image id="kity_image_246" xlink:href="https://kityminder-img.gz.bcebos.com/fd464a8fd1a2be2da38d8722a0178b441a631d54" x="638.5" y="542.5" width="200" height="154"></image></g><g id="minder_node5"><g id="node_expander3" style="cursor: pointer;" display="none"><path id="kity_path_308" fill="white" stroke="gray" d="M590.5,31.5A6,6,0,1,1,578.5,31.5A6,6,0,1,1,590.5,31.5"></path><path id="kity_path_309" fill="none" stroke="gray"></path></g><path id="node_outline4" fill="none" stroke="none" d="M402.5,20.5h171a5,5,0,0,1,5,5v12a5,5,0,0,1,-5,5h-171a5,5,0,0,1,-5,-5v-12a5,5,0,0,1,5,-5z"></path><g id="node_text4" fill="black"><text id="kity_text_143" text-rendering="inherit" font-size="12" dy=".8em" y="23.700000047683716" x="407.5">Part-of-speech(pos) tagging</text></g></g><g id="minder_node6"><g id="node_expander4" style="cursor: pointer;" display="none"><path id="kity_path_311" fill="white" stroke="gray" d="M590.5,83.5A6,6,0,1,1,578.5,83.5A6,6,0,1,1,590.5,83.5"></path><path id="kity_path_312" fill="none" stroke="gray"></path></g><path id="node_outline5" fill="none" stroke="none" d="M449.5,72.5h124a5,5,0,0,1,5,5v12a5,5,0,0,1,-5,5h-124a5,5,0,0,1,-5,-5v-12a5,5,0,0,1,5,-5z"></path><g id="node_text5" fill="black"><text id="kity_text_145" text-rendering="inherit" font-size="12" dy=".8em" y="75.70000004768372" x="454.5">Word segmentation</text></g></g><g id="minder_node7"><g id="node_expander7" style="cursor: pointer;"><path id="kity_path_320" fill="white" stroke="gray" d="M590.5,161.5A6,6,0,1,1,578.5,161.5A6,6,0,1,1,590.5,161.5"></path><path id="kity_path_321" fill="none" stroke="gray" d="M580,161.5L589,161.5"></path></g><path id="node_outline8" fill="none" stroke="none" d="M521.5,150.5h52a5,5,0,0,1,5,5v12a5,5,0,0,1,-5,5h-52a5,5,0,0,1,-5,-5v-12a5,5,0,0,1,5,-5z"></path><g id="node_text8" fill="black"><text id="kity_text_151" text-rendering="inherit" font-size="12" dy=".8em" y="153.70000004768372" x="526.5">Parsing</text></g></g><g id="minder_node8"><g id="node_expander5" style="cursor: pointer;" display="none"><path id="kity_path_314" fill="white" stroke="gray" d="M488.5,135.5A6,6,0,1,1,476.5,135.5A6,6,0,1,1,488.5,135.5"></path><path id="kity_path_315" fill="none" stroke="gray"></path></g><path id="node_outline6" fill="none" stroke="none" d="M340.5,124.5h131a5,5,0,0,1,5,5v12a5,5,0,0,1,-5,5h-131a5,5,0,0,1,-5,-5v-12a5,5,0,0,1,5,-5z"></path><g id="node_text6" fill="black"><text id="kity_text_147" text-rendering="inherit" font-size="12" dy=".8em" y="127.70000004768372" x="345.5">Constituency parsing</text></g></g><g id="minder_node9"><g id="node_expander6" style="cursor: pointer;" display="none"><path id="kity_path_317" fill="white" stroke="gray" d="M488.5,187.5A6,6,0,1,1,476.5,187.5A6,6,0,1,1,488.5,187.5"></path><path id="kity_path_318" fill="none" stroke="gray"></path></g><path id="node_outline7" fill="none" stroke="none" d="M343.5,176.5h128a5,5,0,0,1,5,5v12a5,5,0,0,1,-5,5h-128a5,5,0,0,1,-5,-5v-12a5,5,0,0,1,5,-5z"></path><g id="node_text7" fill="black"><text id="kity_text_149" text-rendering="inherit" font-size="12" dy=".8em" y="179.70000004768372" x="348.5">Dependency parsing</text></g></g><g id="minder_node10"><g id="node_expander9" style="cursor: pointer;"><path id="kity_path_326" fill="white" stroke="gray" d="M590.5,239.5A6,6,0,1,1,578.5,239.5A6,6,0,1,1,590.5,239.5"></path><path id="kity_path_327" fill="none" stroke="gray" d="M580,239.5L589,239.5"></path></g><path id="node_outline10" fill="none" stroke="none" d="M360.5,228.5h213a5,5,0,0,1,5,5v12a5,5,0,0,1,-5,5h-213a5,5,0,0,1,-5,-5v-12a5,5,0,0,1,5,-5z"></path><g id="node_text10" fill="black"><text id="kity_text_155" text-rendering="inherit" font-size="12" dy=".8em" y="231.70000004768372" x="365.5">Coreference resolution（指代消解）</text></g></g><g id="minder_node11"><g id="node_expander8" style="cursor: pointer;" display="none"><path id="kity_path_323" fill="white" stroke="gray" d="M327.5,239.5A6,6,0,1,1,315.5,239.5A6,6,0,1,1,327.5,239.5"></path><path id="kity_path_324" fill="none" stroke="gray"></path></g><path id="node_outline9" fill="none" stroke="none" d="M147.5,228.5h163a5,5,0,0,1,5,5v12a5,5,0,0,1,-5,5h-163a5,5,0,0,1,-5,-5v-12a5,5,0,0,1,5,-5z"></path><g id="node_text9" fill="black"><text id="kity_text_153" text-rendering="inherit" font-size="12" dy=".8em" y="231.70000004768372" x="152.5">哪些词汇指的是同一个entity</text></g></g><g id="minder_node12"><g id="node_expander12" style="cursor: pointer;"><path id="kity_path_335" fill="white" stroke="gray" d="M590.5,317.5A6,6,0,1,1,578.5,317.5A6,6,0,1,1,590.5,317.5"></path><path id="kity_path_336" fill="none" stroke="gray" d="M580,317.5L589,317.5"></path></g><path id="node_outline13" fill="none" stroke="none" d="M477.5,306.5h96a5,5,0,0,1,5,5v12a5,5,0,0,1,-5,5h-96a5,5,0,0,1,-5,-5v-12a5,5,0,0,1,5,-5z"></path><g id="node_text13" fill="black"><text id="kity_text_161" text-rendering="inherit" font-size="12" dy=".8em" y="309.7000000476837" x="482.5">Summarization</text></g></g><g id="minder_node13"><g id="node_expander10" style="cursor: pointer;" display="none"><path id="kity_path_329" fill="white" stroke="gray" d="M444.5,291.5A6,6,0,1,1,432.5,291.5A6,6,0,1,1,444.5,291.5"></path><path id="kity_path_330" fill="none" stroke="gray"></path></g><path id="node_outline11" fill="none" stroke="none" d="M273.5,280.5h154a5,5,0,0,1,5,5v12a5,5,0,0,1,-5,5h-154a5,5,0,0,1,-5,-5v-12a5,5,0,0,1,5,-5z"></path><g id="node_text11" fill="black"><text id="kity_text_157" text-rendering="inherit" font-size="12" dy=".8em" y="283.7000000476837" x="278.5">Extractive summarization</text></g></g><g id="minder_node14"><g id="node_expander11" style="cursor: pointer;" display="none"><path id="kity_path_332" fill="white" stroke="gray" d="M444.5,343.5A6,6,0,1,1,432.5,343.5A6,6,0,1,1,444.5,343.5"></path><path id="kity_path_333" fill="none" stroke="gray"></path></g><path id="node_outline12" fill="none" stroke="none" d="M264.5,332.5h163a5,5,0,0,1,5,5v12a5,5,0,0,1,-5,5h-163a5,5,0,0,1,-5,-5v-12a5,5,0,0,1,5,-5z"></path><g id="node_text12" fill="black"><text id="kity_text_159" text-rendering="inherit" font-size="12" dy=".8em" y="335.7000000476837" x="269.5">Abstractive summarization</text></g></g><g id="minder_node15"><g id="node_expander13" style="cursor: pointer;" display="none"><path id="kity_path_338" fill="white" stroke="gray" d="M590.5,395.5A6,6,0,1,1,578.5,395.5A6,6,0,1,1,590.5,395.5"></path><path id="kity_path_339" fill="none" stroke="gray"></path></g><path id="node_outline14" fill="none" stroke="none" d="M449.5,384.5h124a5,5,0,0,1,5,5v12a5,5,0,0,1,-5,5h-124a5,5,0,0,1,-5,-5v-12a5,5,0,0,1,5,-5z"></path><g id="node_text14" fill="black"><text id="kity_text_163" text-rendering="inherit" font-size="12" dy=".8em" y="387.7000000476837" x="454.5">Machine translation</text></g></g><g id="minder_node16"><g id="node_expander14" style="cursor: pointer;" display="none"><path id="kity_path_341" fill="white" stroke="gray" d="M590.5,447.5A6,6,0,1,1,578.5,447.5A6,6,0,1,1,590.5,447.5"></path><path id="kity_path_342" fill="none" stroke="gray"></path></g><path id="node_outline15" fill="none" stroke="none" d="M416.5,436.5h157a5,5,0,0,1,5,5v12a5,5,0,0,1,-5,5h-157a5,5,0,0,1,-5,-5v-12a5,5,0,0,1,5,-5z"></path><g id="node_text15" fill="black"><text id="kity_text_165" text-rendering="inherit" font-size="12" dy=".8em" y="439.7000000476837" x="421.5">Grammar error correction</text></g></g><g id="minder_node17"><g id="node_expander15" style="cursor: pointer;" display="none"><path id="kity_path_344" fill="white" stroke="gray" d="M590.5,499.5A6,6,0,1,1,578.5,499.5A6,6,0,1,1,590.5,499.5"></path><path id="kity_path_345" fill="none" stroke="gray"></path></g><path id="node_outline16" fill="none" stroke="none" d="M428.5,488.5h145a5,5,0,0,1,5,5v12a5,5,0,0,1,-5,5h-145a5,5,0,0,1,-5,-5v-12a5,5,0,0,1,5,-5z"></path><g id="node_text16" fill="black"><text id="kity_text_167" text-rendering="inherit" font-size="12" dy=".8em" y="491.7000000476837" x="433.5">Sentiment classification</text></g></g><g id="minder_node18"><g id="node_expander16" style="cursor: pointer;" display="none"><path id="kity_path_347" fill="white" stroke="gray" d="M590.5,551.5A6,6,0,1,1,578.5,551.5A6,6,0,1,1,590.5,551.5"></path><path id="kity_path_348" fill="none" stroke="gray"></path></g><path id="node_outline17" fill="none" stroke="none" d="M396.5,540.5h177a5,5,0,0,1,5,5v12a5,5,0,0,1,-5,5h-177a5,5,0,0,1,-5,-5v-12a5,5,0,0,1,5,-5z"></path><g id="node_text17" fill="black"><text id="kity_text_169" text-rendering="inherit" font-size="12" dy=".8em" y="543.7000000476837" x="401.5">stance detection（立场检测）</text></g></g><g id="minder_node19"><g id="node_expander17" style="cursor: pointer;" display="none"><path id="kity_path_350" fill="white" stroke="gray" d="M590.5,603.5A6,6,0,1,1,578.5,603.5A6,6,0,1,1,590.5,603.5"></path><path id="kity_path_351" fill="none" stroke="gray"></path></g><path id="node_outline18" fill="none" stroke="none" d="M456.5,592.5h117a5,5,0,0,1,5,5v12a5,5,0,0,1,-5,5h-117a5,5,0,0,1,-5,-5v-12a5,5,0,0,1,5,-5z"></path><g id="node_text18" fill="black"><text id="kity_text_171" text-rendering="inherit" font-size="12" dy=".8em" y="595.7000000476837" x="461.5">veracity prediction</text></g></g><g id="minder_node20"><g id="node_expander18" style="cursor: pointer;" display="none"><path id="kity_path_353" fill="white" stroke="gray" d="M590.5,655.5A6,6,0,1,1,578.5,655.5A6,6,0,1,1,590.5,655.5"></path><path id="kity_path_354" fill="none" stroke="gray"></path></g><path id="node_outline19" fill="none" stroke="none" d="M282.5,644.5h291a5,5,0,0,1,5,5v12a5,5,0,0,1,-5,5h-291a5,5,0,0,1,-5,-5v-12a5,5,0,0,1,5,-5z"></path><g id="node_text19" fill="black"><text id="kity_text_173" text-rendering="inherit" font-size="12" dy=".8em" y="647.7000000476837" x="287.5">natural language inference(NLI) （自然语言推理）</text></g></g><g id="minder_node21"><g id="node_expander19" style="cursor: pointer;" display="none"><path id="kity_path_356" fill="white" stroke="gray" d="M590.5,707.5A6,6,0,1,1,578.5,707.5A6,6,0,1,1,590.5,707.5"></path><path id="kity_path_357" fill="none" stroke="gray"></path></g><path id="node_outline20" fill="none" stroke="none" d="M483.5,696.5h90a5,5,0,0,1,5,5v12a5,5,0,0,1,-5,5h-90a5,5,0,0,1,-5,-5v-12a5,5,0,0,1,5,-5z"></path><g id="node_text20" fill="black"><text id="kity_text_175" text-rendering="inherit" font-size="12" dy=".8em" y="699.7000000476837" x="488.5">search engine</text></g></g><g id="minder_node22"><g id="node_expander20" style="cursor: pointer;" display="none"><path id="kity_path_359" fill="white" stroke="gray" d="M590.5,759.5A6,6,0,1,1,578.5,759.5A6,6,0,1,1,590.5,759.5"></path><path id="kity_path_360" fill="none" stroke="gray"></path></g><path id="node_outline21" fill="none" stroke="none" d="M421.5,748.5h152a5,5,0,0,1,5,5v12a5,5,0,0,1,-5,5h-152a5,5,0,0,1,-5,-5v-12a5,5,0,0,1,5,-5z"></path><g id="node_text21" fill="black"><text id="kity_text_177" text-rendering="inherit" font-size="12" dy=".8em" y="751.7000000476837" x="426.5">question answering (QA)</text></g></g><g id="minder_node23"><g id="node_expander25" style="cursor: pointer;"><path id="kity_path_374" fill="white" stroke="gray" d="M590.5,850.5A6,6,0,1,1,578.5,850.5A6,6,0,1,1,590.5,850.5"></path><path id="kity_path_375" fill="none" stroke="gray" d="M580,850.5L589,850.5"></path></g><path id="node_outline26" fill="none" stroke="none" d="M479.5,839.5h94a5,5,0,0,1,5,5v12a5,5,0,0,1,-5,5h-94a5,5,0,0,1,-5,-5v-12a5,5,0,0,1,5,-5z"></path><g id="node_text26" fill="black"><text id="kity_text_187" text-rendering="inherit" font-size="12" dy=".8em" y="842.7000000476837" x="484.5">Dialogue(对话)</text></g></g><g id="minder_node24"><g id="node_expander21" style="cursor: pointer;" display="none"><path id="kity_path_362" fill="white" stroke="gray" d="M446.5,811.5A6,6,0,1,1,434.5,811.5A6,6,0,1,1,446.5,811.5"></path><path id="kity_path_363" fill="none" stroke="gray"></path></g><path id="node_outline22" fill="none" stroke="none" d="M370.5,800.5h59a5,5,0,0,1,5,5v12a5,5,0,0,1,-5,5h-59a5,5,0,0,1,-5,-5v-12a5,5,0,0,1,5,-5z"></path><g id="node_text22" fill="black"><text id="kity_text_179" text-rendering="inherit" font-size="12" dy=".8em" y="803.7000000476837" x="375.5">Chatting</text></g></g><g id="minder_node25"><g id="node_expander24" style="cursor: pointer;"><path id="kity_path_371" fill="white" stroke="gray" d="M446.5,889.5A6,6,0,1,1,434.5,889.5A6,6,0,1,1,446.5,889.5"></path><path id="kity_path_372" fill="none" stroke="gray" d="M436,889.5L445,889.5"></path></g><path id="node_outline25" fill="none" stroke="none" d="M287.5,878.5h142a5,5,0,0,1,5,5v12a5,5,0,0,1,-5,5h-142a5,5,0,0,1,-5,-5v-12a5,5,0,0,1,5,-5z"></path><g id="node_text25" fill="black"><text id="kity_text_185" text-rendering="inherit" font-size="12" dy=".8em" y="881.7000000476837" x="292.5">task-oriented(任务导向)</text></g></g><g id="minder_node26"><g id="node_expander22" style="cursor: pointer;" display="none"><path id="kity_path_365" fill="white" stroke="gray" d="M254.5,863.5A6,6,0,1,1,242.5,863.5A6,6,0,1,1,254.5,863.5"></path><path id="kity_path_366" fill="none" stroke="gray"></path></g><path id="node_outline23" fill="none" stroke="none" d="M25.5,852.5h212a5,5,0,0,1,5,5v12a5,5,0,0,1,-5,5h-212a5,5,0,0,1,-5,-5v-12a5,5,0,0,1,5,-5z"></path><g id="node_text23" fill="black"><text id="kity_text_181" text-rendering="inherit" font-size="12" dy=".8em" y="855.7000000476837" x="30.5">Natural language generation (NLG)</text></g></g><g id="minder_node27"><g id="node_expander23" style="cursor: pointer;" display="none"><path id="kity_path_368" fill="white" stroke="gray" d="M254.5,915.5A6,6,0,1,1,242.5,915.5A6,6,0,1,1,254.5,915.5"></path><path id="kity_path_369" fill="none" stroke="gray"></path></g><path id="node_outline24" fill="none" stroke="none" d="M105.5,904.5h132a5,5,0,0,1,5,5v12a5,5,0,0,1,-5,5h-132a5,5,0,0,1,-5,-5v-12a5,5,0,0,1,5,-5z"></path><g id="node_text24" fill="black"><text id="kity_text_183" text-rendering="inherit" font-size="12" dy=".8em" y="907.7000000476837" x="110.5">Policy &amp; state tracker</text></g></g><g id="minder_node28"><g id="node_expander28" style="cursor: pointer;"><path id="kity_path_383" fill="white" stroke="gray" d="M590.5,993.5A6,6,0,1,1,578.5,993.5A6,6,0,1,1,590.5,993.5"></path><path id="kity_path_384" fill="none" stroke="gray" d="M580,993.5L589,993.5"></path></g><path id="node_outline29" fill="none" stroke="none" d="M347.5,982.5h226a5,5,0,0,1,5,5v12a5,5,0,0,1,-5,5h-226a5,5,0,0,1,-5,-5v-12a5,5,0,0,1,5,-5z"></path><g id="node_text29" fill="black"><text id="kity_text_193" text-rendering="inherit" font-size="12" dy=".8em" y="985.7000000476837" x="352.5">NLU: natural language understanding</text></g></g><g id="minder_node29"><g id="node_expander26" style="cursor: pointer;" display="none"><path id="kity_path_377" fill="white" stroke="gray" d="M314.5,967.5A6,6,0,1,1,302.5,967.5A6,6,0,1,1,314.5,967.5"></path><path id="kity_path_378" fill="none" stroke="gray"></path></g><path id="node_outline27" fill="none" stroke="none" d="M177.5,956.5h120a5,5,0,0,1,5,5v12a5,5,0,0,1,-5,5h-120a5,5,0,0,1,-5,-5v-12a5,5,0,0,1,5,-5z"></path><g id="node_text27" fill="black"><text id="kity_text_189" text-rendering="inherit" font-size="12" dy=".8em" y="959.7000000476837" x="182.5">Intent classification</text></g></g><g id="minder_node30"><g id="node_expander27" style="cursor: pointer;" display="none"><path id="kity_path_380" fill="white" stroke="gray" d="M314.5,1019.5A6,6,0,1,1,302.5,1019.5A6,6,0,1,1,314.5,1019.5"></path><path id="kity_path_381" fill="none" stroke="gray"></path></g><path id="node_outline28" fill="none" stroke="none" d="M232.5,1008.5h65a5,5,0,0,1,5,5v12a5,5,0,0,1,-5,5h-65a5,5,0,0,1,-5,-5v-12a5,5,0,0,1,5,-5z"></path><g id="node_text28" fill="black"><text id="kity_text_191" text-rendering="inherit" font-size="12" dy=".8em" y="1011.7000000476837" x="237.5">Slot filing</text></g></g><g id="minder_node31"><g id="node_expander33" style="cursor: pointer;"><path id="kity_path_398" fill="white" stroke="gray" d="M590.5,1097.5A6,6,0,1,1,578.5,1097.5A6,6,0,1,1,590.5,1097.5"></path><path id="kity_path_399" fill="none" stroke="gray" d="M580,1097.5L589,1097.5"></path></g><path id="node_outline34" fill="none" stroke="none" d="M461.5,1086.5h112a5,5,0,0,1,5,5v12a5,5,0,0,1,-5,5h-112a5,5,0,0,1,-5,-5v-12a5,5,0,0,1,5,-5z"></path><g id="node_text34" fill="black"><text id="kity_text_203" text-rendering="inherit" font-size="12" dy=".8em" y="1089.7000000476837" x="466.5">Knowledge graph</text></g></g><g id="minder_node32"><g id="node_expander30" style="cursor: pointer;"><path id="kity_path_389" fill="white" stroke="gray" d="M428.5,1071.5A6,6,0,1,1,416.5,1071.5A6,6,0,1,1,428.5,1071.5"></path><path id="kity_path_390" fill="none" stroke="gray" d="M418,1071.5L427,1071.5"></path></g><path id="node_outline31" fill="none" stroke="none" d="M326.5,1060.5h85a5,5,0,0,1,5,5v12a5,5,0,0,1,-5,5h-85a5,5,0,0,1,-5,-5v-12a5,5,0,0,1,5,-5z"></path><g id="node_text31" fill="black"><text id="kity_text_197" text-rendering="inherit" font-size="12" dy=".8em" y="1063.7000000476837" x="331.5">extract entity</text></g></g><g id="minder_node33"><g id="node_expander29" style="cursor: pointer;" display="none"><path id="kity_path_386" fill="white" stroke="gray" d="M293.5,1071.5A6,6,0,1,1,281.5,1071.5A6,6,0,1,1,293.5,1071.5"></path><path id="kity_path_387" fill="none" stroke="gray"></path></g><path id="node_outline30" fill="none" stroke="none" d="M90.5,1060.5h186a5,5,0,0,1,5,5v12a5,5,0,0,1,-5,5h-186a5,5,0,0,1,-5,-5v-12a5,5,0,0,1,5,-5z"></path><g id="node_text30" fill="black"><text id="kity_text_195" text-rendering="inherit" font-size="12" dy=".8em" y="1063.7000000476837" x="95.5">Name entity recognition (NER)</text></g></g><g id="minder_node34"><g id="node_expander32" style="cursor: pointer;"><path id="kity_path_395" fill="white" stroke="gray" d="M428.5,1123.5A6,6,0,1,1,416.5,1123.5A6,6,0,1,1,428.5,1123.5"></path><path id="kity_path_396" fill="none" stroke="gray" d="M418,1123.5L427,1123.5"></path></g><path id="node_outline33" fill="none" stroke="none" d="M315.5,1112.5h96a5,5,0,0,1,5,5v12a5,5,0,0,1,-5,5h-96a5,5,0,0,1,-5,-5v-12a5,5,0,0,1,5,-5z"></path><g id="node_text33" fill="black"><text id="kity_text_201" text-rendering="inherit" font-size="12" dy=".8em" y="1115.7000000476837" x="320.5">extract relation</text></g></g><g id="minder_node35"><g id="node_expander31" style="cursor: pointer;" display="none"><path id="kity_path_392" fill="white" stroke="gray" d="M282.5,1123.5A6,6,0,1,1,270.5,1123.5A6,6,0,1,1,282.5,1123.5"></path><path id="kity_path_393" fill="none" stroke="gray"></path></g><path id="node_outline32" fill="none" stroke="none" d="M147.5,1112.5h118a5,5,0,0,1,5,5v12a5,5,0,0,1,-5,5h-118a5,5,0,0,1,-5,-5v-12a5,5,0,0,1,5,-5z"></path><g id="node_text32" fill="black"><text id="kity_text_199" text-rendering="inherit" font-size="12" dy=".8em" y="1115.7000000476837" x="152.5">Relation extraction</text></g></g><g id="minder_node36"><g id="node_expander37" style="cursor: pointer;"><path id="kity_path_410" fill="white" stroke="gray" d="M590.5,1227.5A6,6,0,1,1,578.5,1227.5A6,6,0,1,1,590.5,1227.5"></path><path id="kity_path_411" fill="none" stroke="gray" d="M580,1227.5L589,1227.5"></path></g><path id="node_outline38" fill="none" stroke="none" d="M496.5,1216.5h77a5,5,0,0,1,5,5v12a5,5,0,0,1,-5,5h-77a5,5,0,0,1,-5,-5v-12a5,5,0,0,1,5,-5z"></path><g id="node_text38" fill="black"><text id="kity_text_211" text-rendering="inherit" font-size="12" dy=".8em" y="1219.7000000476837" x="501.5">Completion</text></g></g><g id="minder_node37"><g id="node_expander34" style="cursor: pointer;" display="none"><path id="kity_path_401" fill="white" stroke="gray" d="M463.5,1175.5A6,6,0,1,1,451.5,1175.5A6,6,0,1,1,463.5,1175.5"></path><path id="kity_path_402" fill="none" stroke="gray"></path></g><path id="node_outline35" fill="none" stroke="none" d="M142.5,1164.5h304a5,5,0,0,1,5,5v12a5,5,0,0,1,-5,5h-304a5,5,0,0,1,-5,-5v-12a5,5,0,0,1,5,-5z"></path><g id="node_text35" fill="black"><text id="kity_text_205" text-rendering="inherit" font-size="12" dy=".8em" y="1167.7000000476837" x="147.5">General language understanding evaluation (GLUE)</text></g></g><g id="minder_node38"><g id="node_expander35" style="cursor: pointer;" display="none"><path id="kity_path_404" fill="white" stroke="gray" d="M463.5,1227.5A6,6,0,1,1,451.5,1227.5A6,6,0,1,1,463.5,1227.5"></path><path id="kity_path_405" fill="none" stroke="gray"></path></g><path id="node_outline36" fill="none" stroke="none" d="M374.5,1216.5h72a5,5,0,0,1,5,5v12a5,5,0,0,1,-5,5h-72a5,5,0,0,1,-5,-5v-12a5,5,0,0,1,5,-5z"></path><g id="node_text36" fill="black"><text id="kity_text_207" text-rendering="inherit" font-size="12" dy=".8em" y="1219.7000000476837" x="379.5">Super glue</text></g></g><g id="minder_node39"><g id="node_expander36" style="cursor: pointer;" display="none"><path id="kity_path_407" fill="white" stroke="gray" d="M463.5,1279.5A6,6,0,1,1,451.5,1279.5A6,6,0,1,1,463.5,1279.5"></path><path id="kity_path_408" fill="none" stroke="gray"></path></g><path id="node_outline37" fill="none" stroke="none" d="M391.5,1268.5h55a5,5,0,0,1,5,5v12a5,5,0,0,1,-5,5h-55a5,5,0,0,1,-5,-5v-12a5,5,0,0,1,5,-5z"></path><g id="node_text37" fill="black"><text id="kity_text_209" text-rendering="inherit" font-size="12" dy=".8em" y="1271.7000000476837" x="396.5">decanlp</text></g></g><g id="minder_node40"><g id="node_expander54" style="cursor: pointer;"><path id="kity_path_461" fill="white" stroke="gray" d="M1084.5,1649.5A6,6,0,1,1,1072.5,1649.5A6,6,0,1,1,1084.5,1649.5"></path><path id="kity_path_462" fill="none" stroke="gray" d="M1074,1649.5L1083,1649.5"></path></g><path id="node_outline55" fill="rgb(238, 243, 246)" stroke="rgb(115, 161, 191)" d="M1006.5,1636.5h62a3,3,0,0,1,3,3v20a3,3,0,0,1,-3,3h-62a3,3,0,0,1,-3,-3v-20a3,3,0,0,1,3,-3z" stroke-width="1"></path><g id="node_text55" fill="black"><text id="kity_text_245" text-rendering="inherit" font-size="14" dy=".8em" y="1640.4000000953674" x="1023.5">Bert</text></g></g><g id="minder_node41"><g id="node_expander44" style="cursor: pointer;"><path id="kity_path_431" fill="white" stroke="gray" d="M975.5,1539.5A6,6,0,1,1,963.5,1539.5A6,6,0,1,1,975.5,1539.5"></path><path id="kity_path_432" fill="none" stroke="gray" d="M965,1539.5L974,1539.5"></path></g><path id="node_outline45" fill="none" stroke="none" d="M924.5,1528.5h34a5,5,0,0,1,5,5v12a5,5,0,0,1,-5,5h-34a5,5,0,0,1,-5,-5v-12a5,5,0,0,1,5,-5z"></path><g id="node_text45" fill="black"><text id="kity_text_225" text-rendering="inherit" font-size="12" dy=".8em" y="1531.7000000476837" x="929.5">结构</text></g></g><g id="minder_node42"><g id="node_expander39" style="cursor: pointer;" display="none"><path id="kity_path_416" fill="white" stroke="gray" d="M891.5,1461.5A6,6,0,1,1,879.5,1461.5A6,6,0,1,1,891.5,1461.5"></path><path id="kity_path_417" fill="none" stroke="gray"></path></g><path id="node_outline40" fill="none" stroke="none" d="M814.5,1450.5h60a5,5,0,0,1,5,5v12a5,5,0,0,1,-5,5h-60a5,5,0,0,1,-5,-5v-12a5,5,0,0,1,5,-5z"></path><g id="node_text40" fill="black"><text id="kity_text_215" text-rendering="inherit" font-size="12" dy=".8em" y="1453.7000000476837" x="819.5">pre-trian</text></g></g><g id="minder_node43"><g id="node_expander42" style="cursor: pointer;"><path id="kity_path_425" fill="white" stroke="gray" d="M831.5,1539.5A6,6,0,1,1,819.5,1539.5A6,6,0,1,1,831.5,1539.5"></path><path id="kity_path_426" fill="none" stroke="gray" d="M821,1539.5L830,1539.5"></path></g><path id="node_outline43" fill="none" stroke="none" d="M751.5,1528.5h63a5,5,0,0,1,5,5v12a5,5,0,0,1,-5,5h-63a5,5,0,0,1,-5,-5v-12a5,5,0,0,1,5,-5z"></path><g id="node_text43" fill="black"><text id="kity_text_221" text-rendering="inherit" font-size="12" dy=".8em" y="1531.7000000476837" x="756.5">fine-tune</text></g></g><g id="minder_node44"><g id="node_expander40" style="cursor: pointer;" display="none"><path id="kity_path_419" fill="white" stroke="gray" d="M718.5,1513.5A6,6,0,1,1,706.5,1513.5A6,6,0,1,1,718.5,1513.5"></path><path id="kity_path_420" fill="none" stroke="gray"></path></g><path id="node_outline41" fill="none" stroke="none" d="M645.5,1502.5h56a5,5,0,0,1,5,5v12a5,5,0,0,1,-5,5h-56a5,5,0,0,1,-5,-5v-12a5,5,0,0,1,5,-5z"></path><g id="node_text41" fill="black"><text id="kity_text_217" text-rendering="inherit" font-size="12" dy=".8em" y="1505.7000000476837" x="650.5">adaptor</text></g></g><g id="minder_node45"><g id="node_expander41" style="cursor: pointer;" display="none"><path id="kity_path_422" fill="white" stroke="gray" d="M718.5,1565.5A6,6,0,1,1,706.5,1565.5A6,6,0,1,1,718.5,1565.5"></path><path id="kity_path_423" fill="none" stroke="gray"></path></g><path id="node_outline42" fill="none" stroke="none" d="M592.5,1554.5h109a5,5,0,0,1,5,5v12a5,5,0,0,1,-5,5h-109a5,5,0,0,1,-5,-5v-12a5,5,0,0,1,5,-5z"></path><g id="node_text42" fill="black"><text id="kity_text_219" text-rendering="inherit" font-size="12" dy=".8em" y="1557.7000000476837" x="597.5">weighed features</text></g></g><g id="minder_node46"><g id="node_expander43" style="cursor: pointer;" display="none"><path id="kity_path_428" fill="white" stroke="gray" d="M891.5,1617.5A6,6,0,1,1,879.5,1617.5A6,6,0,1,1,891.5,1617.5"></path><path id="kity_path_429" fill="none" stroke="gray"></path></g><path id="node_outline44" fill="none" stroke="none" d="M782.5,1606.5h92a5,5,0,0,1,5,5v12a5,5,0,0,1,-5,5h-92a5,5,0,0,1,-5,-5v-12a5,5,0,0,1,5,-5z"></path><g id="node_text44" fill="black"><text id="kity_text_223" text-rendering="inherit" font-size="12" dy=".8em" y="1609.7000000476837" x="787.5">Masking input</text></g></g><g id="minder_node47"><g id="node_expander53" style="cursor: pointer;"><path id="kity_path_458" fill="white" stroke="gray" d="M975.5,1760.5A6,6,0,1,1,963.5,1760.5A6,6,0,1,1,975.5,1760.5"></path><path id="kity_path_459" fill="none" stroke="gray" d="M965,1760.5L974,1760.5"></path></g><path id="node_outline54" fill="none" stroke="none" d="M924.5,1749.5h34a5,5,0,0,1,5,5v12a5,5,0,0,1,-5,5h-34a5,5,0,0,1,-5,-5v-12a5,5,0,0,1,5,-5z"></path><g id="node_text54" fill="black"><text id="kity_text_243" text-rendering="inherit" font-size="12" dy=".8em" y="1752.7000000476837" x="929.5">类似</text></g></g><g id="minder_node48"><g id="node_expander52" style="cursor: pointer;"><path id="kity_path_455" fill="white" stroke="gray" d="M891.5,1760.5A6,6,0,1,1,879.5,1760.5A6,6,0,1,1,891.5,1760.5"></path><path id="kity_path_456" fill="none" stroke="gray" d="M881,1760.5L890,1760.5"></path></g><path id="node_outline53" fill="none" stroke="none" d="M756.5,1749.5h118a5,5,0,0,1,5,5v12a5,5,0,0,1,-5,5h-118a5,5,0,0,1,-5,-5v-12a5,5,0,0,1,5,-5z"></path><g id="node_text53" fill="black"><text id="kity_text_241" text-rendering="inherit" font-size="12" dy=".8em" y="1752.7000000476837" x="761.5">Predict Next Token</text></g></g><g id="minder_node49"><g id="node_expander47" style="cursor: pointer;"><path id="kity_path_440" fill="white" stroke="gray" d="M723.5,1695.5A6,6,0,1,1,711.5,1695.5A6,6,0,1,1,723.5,1695.5"></path><path id="kity_path_441" fill="none" stroke="gray" d="M713,1695.5L722,1695.5"></path></g><path id="node_outline48" fill="none" stroke="none" d="M647.5,1684.5h59a5,5,0,0,1,5,5v12a5,5,0,0,1,-5,5h-59a5,5,0,0,1,-5,-5v-12a5,5,0,0,1,5,-5z"></path><g id="node_text48" fill="black"><text id="kity_text_231" text-rendering="inherit" font-size="12" dy=".8em" y="1687.7000000476837" x="652.5">by LSTM</text></g></g><g id="minder_node50"><g id="node_expander45" style="cursor: pointer;" display="none"><path id="kity_path_434" fill="white" stroke="gray" d="M614.5,1669.5A6,6,0,1,1,602.5,1669.5A6,6,0,1,1,614.5,1669.5"></path><path id="kity_path_435" fill="none" stroke="gray"></path></g><path id="node_outline46" fill="none" stroke="none" d="M555.5,1658.5h42a5,5,0,0,1,5,5v12a5,5,0,0,1,-5,5h-42a5,5,0,0,1,-5,-5v-12a5,5,0,0,1,5,-5z"></path><g id="node_text46" fill="black"><text id="kity_text_227" text-rendering="inherit" font-size="12" dy=".8em" y="1661.7000000476837" x="560.5">ELmo</text></g></g><g id="minder_node51"><g id="node_expander46" style="cursor: pointer;" display="none"><path id="kity_path_437" fill="white" stroke="gray" d="M614.5,1721.5A6,6,0,1,1,602.5,1721.5A6,6,0,1,1,614.5,1721.5"></path><path id="kity_path_438" fill="none" stroke="gray"></path></g><path id="node_outline47" fill="none" stroke="none" d="M546.5,1710.5h51a5,5,0,0,1,5,5v12a5,5,0,0,1,-5,5h-51a5,5,0,0,1,-5,-5v-12a5,5,0,0,1,5,-5z"></path><g id="node_text47" fill="black"><text id="kity_text_229" text-rendering="inherit" font-size="12" dy=".8em" y="1713.7000000476837" x="551.5">ULMFit</text></g></g><g id="minder_node52"><g id="node_expander51" style="cursor: pointer;"><path id="kity_path_452" fill="white" stroke="gray" d="M725.5,1799.5A6,6,0,1,1,713.5,1799.5A6,6,0,1,1,725.5,1799.5"></path><path id="kity_path_453" fill="none" stroke="gray" d="M715,1799.5L724,1799.5"></path></g><path id="node_outline52" fill="none" stroke="none" d="M604.5,1788.5h104a5,5,0,0,1,5,5v12a5,5,0,0,1,-5,5h-104a5,5,0,0,1,-5,-5v-12a5,5,0,0,1,5,-5z"></path><g id="node_text52" fill="black"><text id="kity_text_239" text-rendering="inherit" font-size="12" dy=".8em" y="1791.7000000476837" x="609.5">by self-attention</text></g></g><g id="minder_node53"><g id="node_expander48" style="cursor: pointer;" display="none"><path id="kity_path_443" fill="white" stroke="gray" d="M571.5,1747.5A6,6,0,1,1,559.5,1747.5A6,6,0,1,1,571.5,1747.5"></path><path id="kity_path_444" fill="none" stroke="gray"></path></g><path id="node_outline49" fill="none" stroke="none" d="M521.5,1736.5h33a5,5,0,0,1,5,5v12a5,5,0,0,1,-5,5h-33a5,5,0,0,1,-5,-5v-12a5,5,0,0,1,5,-5z"></path><g id="node_text49" fill="black"><text id="kity_text_233" text-rendering="inherit" font-size="12" dy=".8em" y="1739.7000000476837" x="526.5">GPT</text></g></g><g id="minder_node54"><g id="node_expander49" style="cursor: pointer;" display="none"><path id="kity_path_446" fill="white" stroke="gray" d="M571.5,1799.5A6,6,0,1,1,559.5,1799.5A6,6,0,1,1,571.5,1799.5"></path><path id="kity_path_447" fill="none" stroke="gray"></path></g><path id="node_outline50" fill="none" stroke="none" d="M487.5,1788.5h67a5,5,0,0,1,5,5v12a5,5,0,0,1,-5,5h-67a5,5,0,0,1,-5,-5v-12a5,5,0,0,1,5,-5z"></path><g id="node_text50" fill="black"><text id="kity_text_235" text-rendering="inherit" font-size="12" dy=".8em" y="1791.7000000476837" x="492.5">Megatron</text></g></g><g id="minder_node55"><g id="node_expander50" style="cursor: pointer;" display="none"><path id="kity_path_449" fill="white" stroke="gray" d="M571.5,1851.5A6,6,0,1,1,559.5,1851.5A6,6,0,1,1,571.5,1851.5"></path><path id="kity_path_450" fill="none" stroke="gray"></path></g><path id="node_outline51" fill="none" stroke="none" d="M480.5,1840.5h74a5,5,0,0,1,5,5v12a5,5,0,0,1,-5,5h-74a5,5,0,0,1,-5,-5v-12a5,5,0,0,1,5,-5z"></path><g id="node_text51" fill="black"><text id="kity_text_237" text-rendering="inherit" font-size="12" dy=".8em" y="1843.7000000476837" x="485.5">Turing NLG</text></g></g></g></g></svg>