<svg id="kity_svg_6" xmlns="http://www.w3.org/2000/svg" xmlns:xlink="http://www.w3.org/1999/xlink" version="1.1" width="2430" height="1261" style="background: rgb(251, 251, 251); visibility: visible;" viewBox="0 0 2430 1261"><defs id="kity_defs_7"><linearGradient id="kity_linearGradient_17" x1="0" y1="0" x2="0" y2="1"><stop id="kity_stop_18" offset="0" stop-color="rgb(255, 255, 255)"></stop><stop id="kity_stop_19" offset="1" stop-color="rgb(204, 204, 204)"></stop></linearGradient><marker id="kity_marker_2" orient="auto" refX="6" refY="0" viewBox="-7 -7 14 14" markerWidth="7" markerHeight="7" markerUnits="userSpaceOnUse"><path id="kity_path_3" fill="rgb(115, 161, 191)" stroke="none" d="M6,0A6,6,0,1,1,-6,0A6,6,0,1,1,6,0"></path></marker></defs><g id="kity_g_8"><g id="minder1" text-rendering="optimize-speed"><g id="minder_connect_group1"><path id="kity_path_31" fill="none" stroke="rgb(115, 161, 191)" stroke-width="1" d="M1214.5,564.5A174,149,0,0,1,1388.5,415.5"></path><path id="kity_path_33" fill="none" stroke="rgb(115, 161, 191)" stroke-width="1" d="M1486.5,415.5C1501.5,415.5,1501.5,299.5,1516.5,299.5L1570.5,299.5"></path><path id="kity_path_35" fill="none" stroke="rgb(115, 161, 191)" stroke-width="1" d="M1486.5,415.5C1501.5,415.5,1501.5,351.5,1516.5,351.5L1570.5,351.5"></path><path id="kity_path_37" fill="none" stroke="rgb(115, 161, 191)" stroke-width="1" d="M1486.5,415.5C1501.5,415.5,1501.5,403.5,1516.5,403.5L1570.5,403.5"></path><path id="kity_path_39" fill="none" stroke="rgb(115, 161, 191)" stroke-width="1" d="M1486.5,415.5C1501.5,415.5,1501.5,559.5,1516.5,559.5L1678.5,559.5"></path><path id="kity_path_41" fill="none" stroke="rgb(115, 161, 191)" stroke-width="1" d="M1678.5,559.5C1693.5,559.5,1693.5,455.5,1708.5,455.5L1966.5,455.5"></path><path id="kity_path_43" fill="none" stroke="rgb(115, 161, 191)" stroke-width="1" d="M1678.5,559.5C1693.5,559.5,1693.5,507.5,1708.5,507.5L2074.5,507.5"></path><path id="kity_path_45" fill="none" stroke="rgb(115, 161, 191)" stroke-width="1" d="M1678.5,559.5C1693.5,559.5,1693.5,559.5,1708.5,559.5L2410.5,559.5"></path><path id="kity_path_47" fill="none" stroke="rgb(115, 161, 191)" stroke-width="1" d="M1678.5,559.5C1693.5,559.5,1693.5,611.5,1708.5,611.5L2074.5,611.5"></path><path id="kity_path_49" fill="none" stroke="rgb(115, 161, 191)" stroke-width="1" d="M1678.5,559.5C1693.5,559.5,1693.5,663.5,1708.5,663.5L1787.5,663.5"></path><path id="kity_path_51" fill="none" stroke="rgb(115, 161, 191)" stroke-width="1" d="M1787.5,663.5C1802.5,663.5,1802.5,663.5,1817.5,663.5L2051.5,663.5"></path><path id="kity_path_53" fill="none" stroke="rgb(115, 161, 191)" stroke-width="1" d="M1214.5,564.5A174,149,0,0,0,1388.5,713.5"></path><path id="kity_path_55" fill="none" stroke="rgb(115, 161, 191)" stroke-width="1" d="M1458.5,713.5C1473.5,713.5,1473.5,727.5,1488.5,727.5L1626.5,727.5"></path><path id="kity_path_57" fill="none" stroke="rgb(115, 161, 191)" stroke-width="1" d="M1214.5,564.5A174,0,0,0,1,1040.5,564.5"></path><path id="kity_path_59" fill="none" stroke="rgb(115, 161, 191)" stroke-width="1" d="M970.5,564.5C955.5,564.5,955.5,175.5,940.5,175.5L807.5,175.5"></path><path id="kity_path_61" fill="none" stroke="rgb(115, 161, 191)" stroke-width="1" d="M807.5,175.5C792.5,175.5,792.5,45.5,777.5,45.5L675.5,45.5"></path><path id="kity_path_63" fill="none" stroke="rgb(115, 161, 191)" stroke-width="1" d="M675.5,45.5C639.5,45.5,639.5,45.5,603.5,45.5L452.5,45.5"></path><path id="kity_path_65" fill="none" stroke="rgb(115, 161, 191)" stroke-width="1" d="M807.5,175.5C792.5,175.5,792.5,97.5,777.5,97.5L675.5,97.5"></path><path id="kity_path_67" fill="none" stroke="rgb(115, 161, 191)" stroke-width="1" d="M675.5,97.5C660.5,97.5,660.5,97.5,645.5,97.5L206.5,97.5"></path><path id="kity_path_69" fill="none" stroke="rgb(115, 161, 191)" stroke-width="1" d="M807.5,175.5C792.5,175.5,792.5,149.5,777.5,149.5L675.5,149.5"></path><path id="kity_path_71" fill="none" stroke="rgb(115, 161, 191)" stroke-width="1" d="M675.5,149.5C660.5,149.5,660.5,149.5,645.5,149.5L231.5,149.5"></path><path id="kity_path_73" fill="none" stroke="rgb(115, 161, 191)" stroke-width="1" d="M807.5,175.5C792.5,175.5,792.5,201.5,777.5,201.5L687.5,201.5"></path><path id="kity_path_75" fill="none" stroke="rgb(115, 161, 191)" stroke-width="1" d="M687.5,201.5C672.5,201.5,672.5,201.5,657.5,201.5L194.5,201.5"></path><path id="kity_path_77" fill="none" stroke="rgb(115, 161, 191)" stroke-width="1" d="M807.5,175.5C792.5,175.5,792.5,253.5,777.5,253.5L699.5,253.5"></path><path id="kity_path_79" fill="none" stroke="rgb(115, 161, 191)" stroke-width="1" d="M699.5,253.5C684.5,253.5,684.5,253.5,669.5,253.5L327.5,253.5"></path><path id="kity_path_81" fill="none" stroke="rgb(115, 161, 191)" stroke-width="1" d="M807.5,175.5C792.5,175.5,792.5,305.5,777.5,305.5L698.5,305.5"></path><path id="kity_path_83" fill="none" stroke="rgb(115, 161, 191)" stroke-width="1" d="M970.5,564.5C955.5,564.5,955.5,513.5,940.5,513.5L807.5,513.5"></path><path id="kity_path_85" fill="none" stroke="rgb(115, 161, 191)" stroke-width="1" d="M807.5,513.5C792.5,513.5,792.5,357.5,777.5,357.5L686.5,357.5"></path><path id="kity_path_87" fill="none" stroke="rgb(115, 161, 191)" stroke-width="1" d="M686.5,357.5C671.5,357.5,671.5,357.5,656.5,357.5L373.5,357.5"></path><path id="kity_path_89" fill="none" stroke="none" display="none"></path><path id="kity_path_91" fill="none" stroke="none" display="none"></path><path id="kity_path_93" fill="none" stroke="rgb(115, 161, 191)" stroke-width="1" d="M807.5,513.5C792.5,513.5,792.5,409.5,777.5,409.5L711.5,409.5"></path><path id="kity_path_95" fill="none" stroke="rgb(115, 161, 191)" stroke-width="1" d="M711.5,409.5C696.5,409.5,696.5,409.5,681.5,409.5L495.5,409.5"></path><path id="kity_path_97" fill="none" stroke="rgb(115, 161, 191)" stroke-width="1" d="M807.5,513.5C792.5,513.5,792.5,461.5,777.5,461.5L699.5,461.5"></path><path id="kity_path_99" fill="none" stroke="rgb(115, 161, 191)" stroke-width="1" d="M699.5,461.5C684.5,461.5,684.5,461.5,669.5,461.5L359.5,461.5"></path><path id="kity_path_101" fill="none" stroke="rgb(115, 161, 191)" stroke-width="1" d="M807.5,513.5C792.5,513.5,792.5,513.5,777.5,513.5L699.5,513.5"></path><path id="kity_path_103" fill="none" stroke="rgb(115, 161, 191)" stroke-width="1" d="M807.5,513.5C792.5,513.5,792.5,565.5,777.5,565.5L698.5,565.5"></path><path id="kity_path_105" fill="none" stroke="rgb(115, 161, 191)" stroke-width="1" d="M698.5,565.5C683.5,565.5,683.5,565.5,668.5,565.5L410.5,565.5"></path><path id="kity_path_107" fill="none" stroke="rgb(115, 161, 191)" stroke-width="1" d="M807.5,513.5C792.5,513.5,792.5,617.5,777.5,617.5L699.5,617.5"></path><path id="kity_path_109" fill="none" stroke="rgb(115, 161, 191)" stroke-width="1" d="M807.5,513.5C792.5,513.5,792.5,669.5,777.5,669.5L698.5,669.5"></path><path id="kity_path_111" fill="none" stroke="rgb(115, 161, 191)" stroke-width="1" d="M698.5,669.5C683.5,669.5,683.5,669.5,668.5,669.5L374.5,669.5"></path><path id="kity_path_113" fill="none" stroke="rgb(115, 161, 191)" stroke-width="1" d="M970.5,564.5C955.5,564.5,955.5,981.5,940.5,981.5L800.5,981.5"></path><path id="kity_path_115" fill="none" stroke="rgb(115, 161, 191)" stroke-width="1" d="M800.5,981.5C785.5,981.5,785.5,721.5,770.5,721.5L680.5,721.5"></path><path id="kity_path_117" fill="none" stroke="rgb(115, 161, 191)" stroke-width="1" d="M800.5,981.5C785.5,981.5,785.5,773.5,770.5,773.5L612.5,773.5"></path><path id="kity_path_119" fill="none" stroke="rgb(115, 161, 191)" stroke-width="1" d="M612.5,773.5C597.5,773.5,597.5,773.5,582.5,773.5L155.5,773.5"></path><path id="kity_path_121" fill="none" stroke="rgb(115, 161, 191)" stroke-width="1" d="M800.5,981.5C785.5,981.5,785.5,825.5,770.5,825.5L692.5,825.5"></path><path id="kity_path_123" fill="none" stroke="rgb(115, 161, 191)" stroke-width="1" d="M800.5,981.5C785.5,981.5,785.5,877.5,770.5,877.5L680.5,877.5"></path><path id="kity_path_125" fill="none" stroke="rgb(115, 161, 191)" stroke-width="1" d="M800.5,981.5C785.5,981.5,785.5,929.5,770.5,929.5L680.5,929.5"></path><path id="kity_path_127" fill="none" stroke="rgb(115, 161, 191)" stroke-width="1" d="M800.5,981.5C785.5,981.5,785.5,981.5,770.5,981.5L679.5,981.5"></path><path id="kity_path_129" fill="none" stroke="rgb(115, 161, 191)" stroke-width="1" d="M800.5,981.5C785.5,981.5,785.5,1033.5,770.5,1033.5L579.5,1033.5"></path><path id="kity_path_131" fill="none" stroke="rgb(115, 161, 191)" stroke-width="1" d="M579.5,1033.5C564.5,1033.5,564.5,1033.5,549.5,1033.5L231.5,1033.5"></path><path id="kity_path_133" fill="none" stroke="rgb(115, 161, 191)" stroke-width="1" d="M800.5,981.5C785.5,981.5,785.5,1085.5,770.5,1085.5L692.5,1085.5"></path><path id="kity_path_135" fill="none" stroke="rgb(115, 161, 191)" stroke-width="1" d="M800.5,981.5C785.5,981.5,785.5,1137.5,770.5,1137.5L692.5,1137.5"></path><path id="kity_path_137" fill="none" stroke="rgb(115, 161, 191)" stroke-width="1" d="M692.5,1137.5C677.5,1137.5,677.5,1137.5,662.5,1137.5L20.5,1137.5"></path><path id="kity_path_139" fill="none" stroke="none" display="none"></path><path id="kity_path_141" fill="none" stroke="rgb(115, 161, 191)" stroke-width="1" d="M800.5,981.5C785.5,981.5,785.5,1189.5,770.5,1189.5L680.5,1189.5"></path><path id="kity_path_143" fill="none" stroke="rgb(115, 161, 191)" stroke-width="1" d="M800.5,981.5C785.5,981.5,785.5,1241.5,770.5,1241.5L667.5,1241.5"></path><path id="kity_path_145" fill="none" stroke="rgb(115, 161, 191)" stroke-width="1" d="M667.5,1241.5C652.5,1241.5,652.5,1241.5,637.5,1241.5L295.5,1241.5"></path></g><g id="minder_node1"><path id="node_outline1" fill="rgb(115, 161, 191)" stroke="rgb(57, 80, 96)" d="M1163.5,544.5h102a5,5,0,0,1,5,5v30a5,5,0,0,1,-5,5h-102a5,5,0,0,1,-5,-5v-30a5,5,0,0,1,5,-5z" stroke-width="3"></path><g id="node_text1" fill="white"><text id="kity_text_22" text-rendering="inherit" font-size="16" dy=".8em" y="554.0999999046326" x="1182.5">设计模式</text></g></g><g id="kity_g_12"><path id="kity_path_13" fill="none" stroke="none" d="M1182.5,564.5h0v0h0z"></path></g><g id="kity_g_14"><path id="kity_path_15" fill="none" stroke="none" d="M1182.5,564.5h0v0h0z"></path><path id="kity_path_16" fill="none" stroke="none"></path></g><g id="minder_node2"><g id="node_expander11" style="cursor: pointer;"><path id="kity_path_351" fill="white" stroke="gray" d="M1389.5,415.5A6,6,0,1,1,1377.5,415.5A6,6,0,1,1,1389.5,415.5"></path><path id="kity_path_352" fill="none" stroke="gray" d="M1379,415.5L1388,415.5"></path></g><path id="node_outline12" fill="rgb(238, 243, 246)" stroke="rgb(115, 161, 191)" d="M1393.5,402.5h90a3,3,0,0,1,3,3v20a3,3,0,0,1,-3,3h-90a3,3,0,0,1,-3,-3v-20a3,3,0,0,1,3,-3z" stroke-width="1"></path><g id="node_text12" fill="black"><text id="kity_text_167" text-rendering="inherit" font-size="14" dy=".8em" y="406.40000009536743" x="1410.5">面向对象</text></g></g><g id="minder_node3"><g id="node_expander1" display="none" style="cursor: pointer;"><path id="kity_path_321" fill="white" stroke="gray" d="M1526.5,285.5A6,6,0,1,1,1514.5,285.5A6,6,0,1,1,1526.5,285.5"></path><path id="kity_path_322" fill="none" stroke="gray"></path></g><path id="node_outline2" fill="none" stroke="none" d="M1531.5,274.5h34a5,5,0,0,1,5,5v12a5,5,0,0,1,-5,5h-34a5,5,0,0,1,-5,-5v-12a5,5,0,0,1,5,-5z"></path><g id="node_text2" fill="black"><text id="kity_text_147" text-rendering="inherit" font-size="12" dy=".8em" y="277.7000000476837" x="1536.5">封装</text></g></g><g id="minder_node4"><g id="node_expander2" display="none" style="cursor: pointer;"><path id="kity_path_324" fill="white" stroke="gray" d="M1526.5,337.5A6,6,0,1,1,1514.5,337.5A6,6,0,1,1,1526.5,337.5"></path><path id="kity_path_325" fill="none" stroke="gray"></path></g><path id="node_outline3" fill="none" stroke="none" d="M1531.5,326.5h34a5,5,0,0,1,5,5v12a5,5,0,0,1,-5,5h-34a5,5,0,0,1,-5,-5v-12a5,5,0,0,1,5,-5z"></path><g id="node_text3" fill="black"><text id="kity_text_149" text-rendering="inherit" font-size="12" dy=".8em" y="329.7000000476837" x="1536.5">继承</text></g></g><g id="minder_node5"><g id="node_expander3" display="none" style="cursor: pointer;"><path id="kity_path_327" fill="white" stroke="gray" d="M1526.5,389.5A6,6,0,1,1,1514.5,389.5A6,6,0,1,1,1526.5,389.5"></path><path id="kity_path_328" fill="none" stroke="gray"></path></g><path id="node_outline4" fill="none" stroke="none" d="M1531.5,378.5h34a5,5,0,0,1,5,5v12a5,5,0,0,1,-5,5h-34a5,5,0,0,1,-5,-5v-12a5,5,0,0,1,5,-5z"></path><g id="node_text4" fill="black"><text id="kity_text_151" text-rendering="inherit" font-size="12" dy=".8em" y="381.7000000476837" x="1536.5">多态</text></g></g><g id="minder_node6"><g id="node_expander10" style="cursor: pointer;"><path id="kity_path_348" fill="white" stroke="gray" d="M1526.5,545.5A6,6,0,1,1,1514.5,545.5A6,6,0,1,1,1526.5,545.5"></path><path id="kity_path_349" fill="none" stroke="gray" d="M1516,545.5L1525,545.5"></path></g><path id="node_outline11" fill="none" stroke="none" d="M1531.5,534.5h142a5,5,0,0,1,5,5v12a5,5,0,0,1,-5,5h-142a5,5,0,0,1,-5,-5v-12a5,5,0,0,1,5,-5z"></path><g id="node_text11" fill="black"><text id="kity_text_165" text-rendering="inherit" font-size="12" dy=".8em" y="537.7000000476837" x="1536.5">面向对象设计SOLID原则</text></g></g><g id="minder_node7"><g id="node_expander4" display="none" style="cursor: pointer;"><path id="kity_path_330" fill="white" stroke="gray" d="M1718.5,441.5A6,6,0,1,1,1706.5,441.5A6,6,0,1,1,1718.5,441.5"></path><path id="kity_path_331" fill="none" stroke="gray"></path></g><path id="node_outline5" fill="none" stroke="none" d="M1723.5,430.5h238a5,5,0,0,1,5,5v12a5,5,0,0,1,-5,5h-238a5,5,0,0,1,-5,-5v-12a5,5,0,0,1,5,-5z"></path><g id="node_text5" fill="black"><text id="kity_text_153" text-rendering="inherit" font-size="12" dy=".8em" y="433.7000000476837" x="1728.5">开放封闭原则：对扩展开放，对修改关闭。</text></g></g><g id="minder_node8"><g id="node_expander5" display="none" style="cursor: pointer;"><path id="kity_path_333" fill="white" stroke="gray" d="M1718.5,493.5A6,6,0,1,1,1706.5,493.5A6,6,0,1,1,1718.5,493.5"></path><path id="kity_path_334" fill="none" stroke="gray"></path></g><path id="node_outline6" fill="none" stroke="none" d="M1723.5,482.5h346a5,5,0,0,1,5,5v12a5,5,0,0,1,-5,5h-346a5,5,0,0,1,-5,-5v-12a5,5,0,0,1,5,-5z"></path><g id="node_text6" fill="black"><text id="kity_text_155" text-rendering="inherit" font-size="12" dy=".8em" y="485.7000000476837" x="1728.5">里氏替换原则：所有引用父类的地方必须能使用其子类的对象。</text></g></g><g id="minder_node9"><g id="node_expander6" display="none" style="cursor: pointer;"><path id="kity_path_336" fill="white" stroke="gray" d="M1718.5,545.5A6,6,0,1,1,1706.5,545.5A6,6,0,1,1,1718.5,545.5"></path><path id="kity_path_337" fill="none" stroke="gray"></path></g><path id="node_outline7" fill="none" stroke="none" d="M1723.5,534.5h682a5,5,0,0,1,5,5v12a5,5,0,0,1,-5,5h-682a5,5,0,0,1,-5,-5v-12a5,5,0,0,1,5,-5z"></path><g id="node_text7" fill="black"><text id="kity_text_157" text-rendering="inherit" font-size="12" dy=".8em" y="537.7000000476837" x="1728.5">依赖倒置原则：高层模块不应该依赖底层模块，两者都应该依赖其抽象。抽象不应该依赖细节，细节应该抽象。针对接口编程。</text></g></g><g id="minder_node10"><g id="node_expander7" display="none" style="cursor: pointer;"><path id="kity_path_339" fill="white" stroke="gray" d="M1718.5,597.5A6,6,0,1,1,1706.5,597.5A6,6,0,1,1,1718.5,597.5"></path><path id="kity_path_340" fill="none" stroke="gray"></path></g><path id="node_outline8" fill="none" stroke="none" d="M1723.5,586.5h346a5,5,0,0,1,5,5v12a5,5,0,0,1,-5,5h-346a5,5,0,0,1,-5,-5v-12a5,5,0,0,1,5,-5z"></path><g id="node_text8" fill="black"><text id="kity_text_159" text-rendering="inherit" font-size="12" dy=".8em" y="589.7000000476837" x="1728.5">接口隔离原则：使用多个专门的接口，而不使用单一的总接口。</text></g></g><g id="minder_node11"><g id="node_expander9" style="cursor: pointer;"><path id="kity_path_345" fill="white" stroke="gray" d="M1718.5,649.5A6,6,0,1,1,1706.5,649.5A6,6,0,1,1,1718.5,649.5"></path><path id="kity_path_346" fill="none" stroke="gray" d="M1708,649.5L1717,649.5"></path></g><path id="node_outline10" fill="none" stroke="none" d="M1723.5,638.5h59a5,5,0,0,1,5,5v12a5,5,0,0,1,-5,5h-59a5,5,0,0,1,-5,-5v-12a5,5,0,0,1,5,-5z"></path><g id="node_text10" fill="black"><text id="kity_text_163" text-rendering="inherit" font-size="12" dy=".8em" y="641.7000000476837" x="1728.5">分支主题</text></g></g><g id="minder_node12"><g id="node_expander8" display="none" style="cursor: pointer;"><path id="kity_path_342" fill="white" stroke="gray" d="M1827.5,649.5A6,6,0,1,1,1815.5,649.5A6,6,0,1,1,1827.5,649.5"></path><path id="kity_path_343" fill="none" stroke="gray"></path></g><path id="node_outline9" fill="none" stroke="none" d="M1832.5,638.5h214a5,5,0,0,1,5,5v12a5,5,0,0,1,-5,5h-214a5,5,0,0,1,-5,-5v-12a5,5,0,0,1,5,-5z"></path><g id="node_text9" fill="black"><text id="kity_text_161" text-rendering="inherit" font-size="12" dy=".8em" y="641.7000000476837" x="1837.5">单一职责原则：一个类只负责一项职责</text></g></g><g id="minder_node13"><g id="node_expander13" style="cursor: pointer;"><path id="kity_path_357" fill="white" stroke="gray" d="M1389.5,713.5A6,6,0,1,1,1377.5,713.5A6,6,0,1,1,1389.5,713.5"></path><path id="kity_path_358" fill="none" stroke="gray" d="M1379,713.5L1388,713.5"></path></g><path id="node_outline14" fill="rgb(238, 243, 246)" stroke="rgb(115, 161, 191)" d="M1393.5,700.5h62a3,3,0,0,1,3,3v20a3,3,0,0,1,-3,3h-62a3,3,0,0,1,-3,-3v-20a3,3,0,0,1,3,-3z" stroke-width="1"></path><g id="node_text14" fill="black"><text id="kity_text_171" text-rendering="inherit" font-size="14" dy=".8em" y="704.4000000953674" x="1410.5">接口</text></g></g><g id="minder_node14"><g id="node_expander12" display="none" style="cursor: pointer;"><path id="kity_path_354" fill="white" stroke="gray" d="M1498.5,713.5A6,6,0,1,1,1486.5,713.5A6,6,0,1,1,1498.5,713.5"></path><path id="kity_path_355" fill="none" stroke="gray"></path></g><path id="node_outline13" fill="none" stroke="none" d="M1503.5,702.5h118a5,5,0,0,1,5,5v12a5,5,0,0,1,-5,5h-118a5,5,0,0,1,-5,-5v-12a5,5,0,0,1,5,-5z"></path><g id="node_text13" fill="black"><text id="kity_text_169" text-rendering="inherit" font-size="12" dy=".8em" y="705.7000000476837" x="1508.5">若干抽象方法的集合</text></g></g><g id="minder_node15"><g id="node_expander58" style="cursor: pointer;"><path id="kity_path_492" fill="white" stroke="gray" d="M1051.5,564.5A6,6,0,1,1,1039.5,564.5A6,6,0,1,1,1051.5,564.5"></path><path id="kity_path_493" fill="none" stroke="gray" d="M1041,564.5L1050,564.5"></path></g><path id="node_outline59" fill="rgb(238, 243, 246)" stroke="rgb(115, 161, 191)" d="M973.5,551.5h62a3,3,0,0,1,3,3v20a3,3,0,0,1,-3,3h-62a3,3,0,0,1,-3,-3v-20a3,3,0,0,1,3,-3z" stroke-width="1"></path><g id="node_text59" fill="black"><text id="kity_text_261" text-rendering="inherit" font-size="14" dy=".8em" y="555.4000000953674" x="990.5">类别</text></g></g><g id="minder_node16"><g id="node_expander25" style="cursor: pointer;"><path id="kity_path_393" fill="white" stroke="gray" d="M942.5,161.5A6,6,0,1,1,930.5,161.5A6,6,0,1,1,942.5,161.5"></path><path id="kity_path_394" fill="none" stroke="gray" d="M932,161.5L941,161.5"></path></g><path id="node_outline26" fill="none" stroke="none" d="M812.5,150.5h113a5,5,0,0,1,5,5v12a5,5,0,0,1,-5,5h-113a5,5,0,0,1,-5,-5v-12a5,5,0,0,1,5,-5z"></path><g id="node_text26" fill="black"><text id="kity_text_195" text-rendering="inherit" font-size="12" dy=".8em" y="153.70000004768372" x="817.5">创建型模型（6种）</text></g></g><g id="minder_node17"><g id="node_expander15" style="cursor: pointer;"><path id="kity_path_363" fill="white" stroke="gray" d="M779.5,31.5A6,6,0,1,1,767.5,31.5A6,6,0,1,1,779.5,31.5"></path><path id="kity_path_364" fill="none" stroke="gray" d="M769,31.5L778,31.5"></path></g><path id="node_outline16" fill="none" stroke="none" d="M680.5,20.5h82a5,5,0,0,1,5,5v12a5,5,0,0,1,-5,5h-82a5,5,0,0,1,-5,-5v-12a5,5,0,0,1,5,-5z"></path><g id="node_text16" fill="black"><text id="kity_text_175" text-rendering="inherit" font-size="12" dy=".8em" y="23.700000047683716" x="685.5">简单工厂模式</text></g></g><g id="minder_node18"><g id="node_expander14" display="none" style="cursor: pointer;"><path id="kity_path_360" fill="white" stroke="gray" d="M605.5,31.5A6,6,0,1,1,593.5,31.5A6,6,0,1,1,605.5,31.5"></path><path id="kity_path_361" fill="none" stroke="gray"></path></g><path id="node_outline15" fill="none" stroke="none" d="M457.5,20.5h131a5,5,0,0,1,5,5v12a5,5,0,0,1,-5,5h-131a5,5,0,0,1,-5,-5v-12a5,5,0,0,1,5,-5z"></path><g id="node_text15" fill="black"><text id="kity_text_173" text-rendering="inherit" font-size="12" dy=".8em" y="23.700000047683716" x="462.5">用工厂类来调用产品类</text></g></g><g id="minder_node19"><g id="node_expander17" style="cursor: pointer;"><path id="kity_path_369" fill="white" stroke="gray" d="M779.5,83.5A6,6,0,1,1,767.5,83.5A6,6,0,1,1,779.5,83.5"></path><path id="kity_path_370" fill="none" stroke="gray" d="M769,83.5L778,83.5"></path></g><path id="node_outline18" fill="none" stroke="none" d="M680.5,72.5h82a5,5,0,0,1,5,5v12a5,5,0,0,1,-5,5h-82a5,5,0,0,1,-5,-5v-12a5,5,0,0,1,5,-5z"></path><g id="node_text18" fill="black"><text id="kity_text_179" text-rendering="inherit" font-size="12" dy=".8em" y="75.70000004768372" x="685.5">工厂方法模式</text></g></g><g id="minder_node20"><g id="node_expander16" display="none" style="cursor: pointer;"><path id="kity_path_366" fill="white" stroke="gray" d="M647.5,83.5A6,6,0,1,1,635.5,83.5A6,6,0,1,1,647.5,83.5"></path><path id="kity_path_367" fill="none" stroke="gray"></path></g><path id="node_outline17" fill="none" stroke="none" d="M211.5,72.5h419a5,5,0,0,1,5,5v12a5,5,0,0,1,-5,5h-419a5,5,0,0,1,-5,-5v-12a5,5,0,0,1,5,-5z"></path><g id="node_text17" fill="black"><text id="kity_text_177" text-rendering="inherit" font-size="12" dy=".8em" y="75.70000004768372" x="216.5">定义一个用于创建对象的接口（工厂接口），让子类决定实例化哪一个产品类</text></g></g><g id="minder_node21"><g id="node_expander19" style="cursor: pointer;"><path id="kity_path_375" fill="white" stroke="gray" d="M779.5,135.5A6,6,0,1,1,767.5,135.5A6,6,0,1,1,779.5,135.5"></path><path id="kity_path_376" fill="none" stroke="gray" d="M769,135.5L778,135.5"></path></g><path id="node_outline20" fill="none" stroke="none" d="M680.5,124.5h82a5,5,0,0,1,5,5v12a5,5,0,0,1,-5,5h-82a5,5,0,0,1,-5,-5v-12a5,5,0,0,1,5,-5z"></path><g id="node_text20" fill="black"><text id="kity_text_183" text-rendering="inherit" font-size="12" dy=".8em" y="127.70000004768372" x="685.5">抽象工厂模式</text></g></g><g id="minder_node22"><g id="node_expander18" display="none" style="cursor: pointer;"><path id="kity_path_372" fill="white" stroke="gray" d="M647.5,135.5A6,6,0,1,1,635.5,135.5A6,6,0,1,1,647.5,135.5"></path><path id="kity_path_373" fill="none" stroke="gray"></path></g><path id="node_outline19" fill="none" stroke="none" d="M236.5,124.5h394a5,5,0,0,1,5,5v12a5,5,0,0,1,-5,5h-394a5,5,0,0,1,-5,-5v-12a5,5,0,0,1,5,-5z"></path><g id="node_text19" fill="black"><text id="kity_text_181" text-rendering="inherit" font-size="12" dy=".8em" y="127.70000004768372" x="241.5">定义一个工厂类接口，让工厂子类来创建一系列相关或者相互依赖的对象</text></g></g><g id="minder_node23"><g id="node_expander21" style="cursor: pointer;"><path id="kity_path_381" fill="white" stroke="gray" d="M779.5,187.5A6,6,0,1,1,767.5,187.5A6,6,0,1,1,779.5,187.5"></path><path id="kity_path_382" fill="none" stroke="gray" d="M769,187.5L778,187.5"></path></g><path id="node_outline22" fill="none" stroke="none" d="M692.5,176.5h70a5,5,0,0,1,5,5v12a5,5,0,0,1,-5,5h-70a5,5,0,0,1,-5,-5v-12a5,5,0,0,1,5,-5z"></path><g id="node_text22" fill="black"><text id="kity_text_187" text-rendering="inherit" font-size="12" dy=".8em" y="179.70000004768372" x="697.5">建造者模式</text></g></g><g id="minder_node24"><g id="node_expander20" display="none" style="cursor: pointer;"><path id="kity_path_378" fill="white" stroke="gray" d="M659.5,187.5A6,6,0,1,1,647.5,187.5A6,6,0,1,1,659.5,187.5"></path><path id="kity_path_379" fill="none" stroke="gray"></path></g><path id="node_outline21" fill="none" stroke="none" d="M199.5,176.5h443a5,5,0,0,1,5,5v12a5,5,0,0,1,-5,5h-443a5,5,0,0,1,-5,-5v-12a5,5,0,0,1,5,-5z"></path><g id="node_text21" fill="black"><text id="kity_text_185" text-rendering="inherit" font-size="12" dy=".8em" y="179.70000004768372" x="204.5">将一个复杂对象的构建与它的表示分离，使得同样的构建过程可以创建不同的表示</text></g></g><g id="minder_node25"><g id="node_expander23" style="cursor: pointer;"><path id="kity_path_387" fill="white" stroke="gray" d="M779.5,239.5A6,6,0,1,1,767.5,239.5A6,6,0,1,1,779.5,239.5"></path><path id="kity_path_388" fill="none" stroke="gray" d="M769,239.5L778,239.5"></path></g><path id="node_outline24" fill="none" stroke="none" d="M704.5,228.5h58a5,5,0,0,1,5,5v12a5,5,0,0,1,-5,5h-58a5,5,0,0,1,-5,-5v-12a5,5,0,0,1,5,-5z"></path><g id="node_text24" fill="black"><text id="kity_text_191" text-rendering="inherit" font-size="12" dy=".8em" y="231.70000004768372" x="709.5">单例模式</text></g></g><g id="minder_node26"><g id="node_expander22" display="none" style="cursor: pointer;"><path id="kity_path_384" fill="white" stroke="gray" d="M671.5,239.5A6,6,0,1,1,659.5,239.5A6,6,0,1,1,671.5,239.5"></path><path id="kity_path_385" fill="none" stroke="gray"></path></g><path id="node_outline23" fill="none" stroke="none" d="M332.5,228.5h322a5,5,0,0,1,5,5v12a5,5,0,0,1,-5,5h-322a5,5,0,0,1,-5,-5v-12a5,5,0,0,1,5,-5z"></path><g id="node_text23" fill="black"><text id="kity_text_189" text-rendering="inherit" font-size="12" dy=".8em" y="231.70000004768372" x="337.5">保证一个类只有一个实例，并提供一个访问它的全局访问点</text></g></g><g id="minder_node27"><g id="node_expander24" display="none" style="cursor: pointer;"><path id="kity_path_390" fill="white" stroke="gray" d="M779.5,291.5A6,6,0,1,1,767.5,291.5A6,6,0,1,1,779.5,291.5"></path><path id="kity_path_391" fill="none" stroke="gray"></path></g><path id="node_outline25" fill="none" stroke="none" d="M703.5,280.5h59a5,5,0,0,1,5,5v12a5,5,0,0,1,-5,5h-59a5,5,0,0,1,-5,-5v-12a5,5,0,0,1,5,-5z"></path><g id="node_text25" fill="black"><text id="kity_text_193" text-rendering="inherit" font-size="12" dy=".8em" y="283.7000000476837" x="708.5">原型模式</text></g></g><g id="minder_node28"><g id="node_expander40" style="cursor: pointer;"><path id="kity_path_438" fill="white" stroke="gray" d="M942.5,499.5A6,6,0,1,1,930.5,499.5A6,6,0,1,1,942.5,499.5"></path><path id="kity_path_439" fill="none" stroke="gray" d="M932,499.5L941,499.5"></path></g><path id="node_outline41" fill="none" stroke="none" d="M812.5,488.5h113a5,5,0,0,1,5,5v12a5,5,0,0,1,-5,5h-113a5,5,0,0,1,-5,-5v-12a5,5,0,0,1,5,-5z"></path><g id="node_text41" fill="black"><text id="kity_text_225" text-rendering="inherit" font-size="12" dy=".8em" y="491.7000000476837" x="817.5">结构型模式（7种）</text></g></g><g id="minder_node29"><g id="node_expander29" style="cursor: pointer;"><path id="kity_path_405" fill="white" stroke="gray" d="M779.5,343.5A6,6,0,1,1,767.5,343.5A6,6,0,1,1,779.5,343.5"></path><path id="kity_path_406" fill="none" stroke="gray" d="M769,343.5L778,343.5"></path></g><path id="node_outline30" fill="none" stroke="none" d="M691.5,332.5h71a5,5,0,0,1,5,5v12a5,5,0,0,1,-5,5h-71a5,5,0,0,1,-5,-5v-12a5,5,0,0,1,5,-5z"></path><g id="node_text30" fill="black"><text id="kity_text_203" text-rendering="inherit" font-size="12" dy=".8em" y="335.7000000476837" x="696.5">适配器模式</text></g></g><g id="minder_node30"><g id="node_expander28" style="cursor: pointer;"><path id="kity_path_402" fill="white" stroke="gray" d="M658.5,343.5A6,6,0,1,1,646.5,343.5A6,6,0,1,1,658.5,343.5"></path><path id="kity_path_403" fill="none" stroke="gray" d="M648,343.5L657,343.5M652.5,339L652.5,348"></path></g><path id="node_outline29" fill="none" stroke="none" d="M378.5,332.5h263a5,5,0,0,1,5,5v12a5,5,0,0,1,-5,5h-263a5,5,0,0,1,-5,-5v-12a5,5,0,0,1,5,-5z"></path><g id="node_text29" fill="black"><text id="kity_text_201" text-rendering="inherit" font-size="12" dy=".8em" y="335.7000000476837" x="383.5">将一个类的接口转换为客户端希望的另一个接口</text></g></g><g id="minder_node31" display="none"><g id="node_expander26" display="none" style="cursor: pointer;"><path id="kity_path_396" fill="white" stroke="gray" d="M345.5,313.5A6,6,0,1,1,333.5,313.5A6,6,0,1,1,345.5,313.5"></path><path id="kity_path_397" fill="none" stroke="gray"></path></g><path id="node_outline27" fill="none" stroke="none" d="M328.5,302.5h263a5,5,0,0,1,5,5v12a5,5,0,0,1,-5,5h-263a5,5,0,0,1,-5,-5v-12a5,5,0,0,1,5,-5z"></path><g id="node_text27" fill="black"><text id="kity_text_197" text-rendering="inherit" font-size="12" dy=".8em" y="305.7000000476837" x="333.5">将一个类的接口转换为客户端希望的另一个接口</text></g></g><g id="minder_node32" display="none"><g id="node_expander27" display="none" style="cursor: pointer;"><path id="kity_path_399" fill="white" stroke="gray" d="M345.5,343.5A6,6,0,1,1,333.5,343.5A6,6,0,1,1,345.5,343.5"></path><path id="kity_path_400" fill="none" stroke="gray"></path></g><path id="node_outline28" fill="none" stroke="none" d="M328.5,332.5h263a5,5,0,0,1,5,5v12a5,5,0,0,1,-5,5h-263a5,5,0,0,1,-5,-5v-12a5,5,0,0,1,5,-5z"></path><g id="node_text28" fill="black"><text id="kity_text_199" text-rendering="inherit" font-size="12" dy=".8em" y="335.7000000476837" x="333.5">将一个类的接口转换为客户端希望的另一个接口</text></g></g><g id="minder_node33"><g id="node_expander31" style="cursor: pointer;"><path id="kity_path_411" fill="white" stroke="gray" d="M779.5,395.5A6,6,0,1,1,767.5,395.5A6,6,0,1,1,779.5,395.5"></path><path id="kity_path_412" fill="none" stroke="gray" d="M769,395.5L778,395.5"></path></g><path id="node_outline32" fill="none" stroke="none" d="M716.5,384.5h46a5,5,0,0,1,5,5v12a5,5,0,0,1,-5,5h-46a5,5,0,0,1,-5,-5v-12a5,5,0,0,1,5,-5z"></path><g id="node_text32" fill="black"><text id="kity_text_207" text-rendering="inherit" font-size="12" dy=".8em" y="387.7000000476837" x="721.5">桥模式</text></g></g><g id="minder_node34"><g id="node_expander30" display="none" style="cursor: pointer;"><path id="kity_path_408" fill="white" stroke="gray" d="M683.5,395.5A6,6,0,1,1,671.5,395.5A6,6,0,1,1,683.5,395.5"></path><path id="kity_path_409" fill="none" stroke="gray"></path></g><path id="node_outline31" fill="none" stroke="none" d="M500.5,384.5h166a5,5,0,0,1,5,5v12a5,5,0,0,1,-5,5h-166a5,5,0,0,1,-5,-5v-12a5,5,0,0,1,5,-5z"></path><g id="node_text31" fill="black"><text id="kity_text_205" text-rendering="inherit" font-size="12" dy=".8em" y="387.7000000476837" x="505.5">像桥一样将两个维度搭在一起</text></g></g><g id="minder_node35"><g id="node_expander33" style="cursor: pointer;"><path id="kity_path_417" fill="white" stroke="gray" d="M779.5,447.5A6,6,0,1,1,767.5,447.5A6,6,0,1,1,779.5,447.5"></path><path id="kity_path_418" fill="none" stroke="gray" d="M769,447.5L778,447.5"></path></g><path id="node_outline34" fill="none" stroke="none" d="M704.5,436.5h58a5,5,0,0,1,5,5v12a5,5,0,0,1,-5,5h-58a5,5,0,0,1,-5,-5v-12a5,5,0,0,1,5,-5z"></path><g id="node_text34" fill="black"><text id="kity_text_211" text-rendering="inherit" font-size="12" dy=".8em" y="439.7000000476837" x="709.5">组合模式</text></g></g><g id="minder_node36"><g id="node_expander32" display="none" style="cursor: pointer;"><path id="kity_path_414" fill="white" stroke="gray" d="M671.5,447.5A6,6,0,1,1,659.5,447.5A6,6,0,1,1,671.5,447.5"></path><path id="kity_path_415" fill="none" stroke="gray"></path></g><path id="node_outline33" fill="none" stroke="none" d="M364.5,436.5h290a5,5,0,0,1,5,5v12a5,5,0,0,1,-5,5h-290a5,5,0,0,1,-5,-5v-12a5,5,0,0,1,5,-5z"></path><g id="node_text33" fill="black"><text id="kity_text_209" text-rendering="inherit" font-size="12" dy=".8em" y="439.7000000476837" x="369.5">将对象组合成树形结构以表示"部分-整体"的层次结构</text></g></g><g id="minder_node37"><g id="node_expander34" display="none" style="cursor: pointer;"><path id="kity_path_420" fill="white" stroke="gray" d="M779.5,499.5A6,6,0,1,1,767.5,499.5A6,6,0,1,1,779.5,499.5"></path><path id="kity_path_421" fill="none" stroke="gray"></path></g><path id="node_outline35" fill="none" stroke="none" d="M704.5,488.5h58a5,5,0,0,1,5,5v12a5,5,0,0,1,-5,5h-58a5,5,0,0,1,-5,-5v-12a5,5,0,0,1,5,-5z"></path><g id="node_text35" fill="black"><text id="kity_text_213" text-rendering="inherit" font-size="12" dy=".8em" y="491.7000000476837" x="709.5">装饰模式</text></g></g><g id="minder_node38"><g id="node_expander36" style="cursor: pointer;"><path id="kity_path_426" fill="white" stroke="gray" d="M779.5,551.5A6,6,0,1,1,767.5,551.5A6,6,0,1,1,779.5,551.5"></path><path id="kity_path_427" fill="none" stroke="gray" d="M769,551.5L778,551.5"></path></g><path id="node_outline37" fill="none" stroke="none" d="M703.5,540.5h59a5,5,0,0,1,5,5v12a5,5,0,0,1,-5,5h-59a5,5,0,0,1,-5,-5v-12a5,5,0,0,1,5,-5z"></path><g id="node_text37" fill="black"><text id="kity_text_217" text-rendering="inherit" font-size="12" dy=".8em" y="543.7000000476837" x="708.5">外观模式</text></g></g><g id="minder_node39"><g id="node_expander35" display="none" style="cursor: pointer;"><path id="kity_path_423" fill="white" stroke="gray" d="M670.5,551.5A6,6,0,1,1,658.5,551.5A6,6,0,1,1,670.5,551.5"></path><path id="kity_path_424" fill="none" stroke="gray"></path></g><path id="node_outline36" fill="none" stroke="none" d="M415.5,540.5h238a5,5,0,0,1,5,5v12a5,5,0,0,1,-5,5h-238a5,5,0,0,1,-5,-5v-12a5,5,0,0,1,5,-5z"></path><g id="node_text36" fill="black"><text id="kity_text_215" text-rendering="inherit" font-size="12" dy=".8em" y="543.7000000476837" x="420.5">为子系统中的一组接口提供一个一致的界面</text></g></g><g id="minder_node40"><g id="node_expander37" display="none" style="cursor: pointer;"><path id="kity_path_429" fill="white" stroke="gray" d="M779.5,603.5A6,6,0,1,1,767.5,603.5A6,6,0,1,1,779.5,603.5"></path><path id="kity_path_430" fill="none" stroke="gray"></path></g><path id="node_outline38" fill="none" stroke="none" d="M704.5,592.5h58a5,5,0,0,1,5,5v12a5,5,0,0,1,-5,5h-58a5,5,0,0,1,-5,-5v-12a5,5,0,0,1,5,-5z"></path><g id="node_text38" fill="black"><text id="kity_text_219" text-rendering="inherit" font-size="12" dy=".8em" y="595.7000000476837" x="709.5">享元模式</text></g></g><g id="minder_node41"><g id="node_expander39" style="cursor: pointer;"><path id="kity_path_435" fill="white" stroke="gray" d="M779.5,655.5A6,6,0,1,1,767.5,655.5A6,6,0,1,1,779.5,655.5"></path><path id="kity_path_436" fill="none" stroke="gray" d="M769,655.5L778,655.5"></path></g><path id="node_outline40" fill="none" stroke="none" d="M703.5,644.5h59a5,5,0,0,1,5,5v12a5,5,0,0,1,-5,5h-59a5,5,0,0,1,-5,-5v-12a5,5,0,0,1,5,-5z"></path><g id="node_text40" fill="black"><text id="kity_text_223" text-rendering="inherit" font-size="12" dy=".8em" y="647.7000000476837" x="708.5">代理模式</text></g></g><g id="minder_node42"><g id="node_expander38" display="none" style="cursor: pointer;"><path id="kity_path_432" fill="white" stroke="gray" d="M670.5,655.5A6,6,0,1,1,658.5,655.5A6,6,0,1,1,670.5,655.5"></path><path id="kity_path_433" fill="none" stroke="gray"></path></g><path id="node_outline39" fill="none" stroke="none" d="M379.5,644.5h274a5,5,0,0,1,5,5v12a5,5,0,0,1,-5,5h-274a5,5,0,0,1,-5,-5v-12a5,5,0,0,1,5,-5z"></path><g id="node_text39" fill="black"><text id="kity_text_221" text-rendering="inherit" font-size="12" dy=".8em" y="647.7000000476837" x="384.5">为其他对象提供一种代理以控制对这个对象对访问</text></g></g><g id="minder_node43"><g id="node_expander57" style="cursor: pointer;"><path id="kity_path_489" fill="white" stroke="gray" d="M942.5,967.5A6,6,0,1,1,930.5,967.5A6,6,0,1,1,942.5,967.5"></path><path id="kity_path_490" fill="none" stroke="gray" d="M932,967.5L941,967.5"></path></g><path id="node_outline58" fill="none" stroke="none" d="M805.5,956.5h120a5,5,0,0,1,5,5v12a5,5,0,0,1,-5,5h-120a5,5,0,0,1,-5,-5v-12a5,5,0,0,1,5,-5z"></path><g id="node_text58" fill="black"><text id="kity_text_259" text-rendering="inherit" font-size="12" dy=".8em" y="959.7000000476837" x="810.5">行为型模式（11种）</text></g></g><g id="minder_node44"><g id="node_expander41" display="none" style="cursor: pointer;"><path id="kity_path_441" fill="white" stroke="gray" d="M772.5,707.5A6,6,0,1,1,760.5,707.5A6,6,0,1,1,772.5,707.5"></path><path id="kity_path_442" fill="none" stroke="gray"></path></g><path id="node_outline42" fill="none" stroke="none" d="M685.5,696.5h70a5,5,0,0,1,5,5v12a5,5,0,0,1,-5,5h-70a5,5,0,0,1,-5,-5v-12a5,5,0,0,1,5,-5z"></path><g id="node_text42" fill="black"><text id="kity_text_227" text-rendering="inherit" font-size="12" dy=".8em" y="699.7000000476837" x="690.5">解释器模式</text></g></g><g id="minder_node45"><g id="node_expander43" style="cursor: pointer;"><path id="kity_path_447" fill="white" stroke="gray" d="M772.5,759.5A6,6,0,1,1,760.5,759.5A6,6,0,1,1,772.5,759.5"></path><path id="kity_path_448" fill="none" stroke="gray" d="M762,759.5L771,759.5"></path></g><path id="node_outline44" fill="none" stroke="none" d="M617.5,748.5h138a5,5,0,0,1,5,5v12a5,5,0,0,1,-5,5h-138a5,5,0,0,1,-5,-5v-12a5,5,0,0,1,5,-5z"></path><g id="node_text44" fill="black"><text id="kity_text_231" text-rendering="inherit" font-size="12" dy=".8em" y="751.7000000476837" x="622.5">责任链模式(类似于链表)</text></g></g><g id="minder_node46"><g id="node_expander42" display="none" style="cursor: pointer;"><path id="kity_path_444" fill="white" stroke="gray" d="M584.5,759.5A6,6,0,1,1,572.5,759.5A6,6,0,1,1,584.5,759.5"></path><path id="kity_path_445" fill="none" stroke="gray"></path></g><path id="node_outline43" fill="none" stroke="none" d="M160.5,748.5h407a5,5,0,0,1,5,5v12a5,5,0,0,1,-5,5h-407a5,5,0,0,1,-5,-5v-12a5,5,0,0,1,5,-5z"></path><g id="node_text43" fill="black"><text id="kity_text_229" text-rendering="inherit" font-size="12" dy=".8em" y="751.7000000476837" x="165.5">将对象连成一条链，并沿着这条链传递该请求，直到有一个对象处理它为止</text></g></g><g id="minder_node47"><g id="node_expander44" display="none" style="cursor: pointer;"><path id="kity_path_450" fill="white" stroke="gray" d="M772.5,811.5A6,6,0,1,1,760.5,811.5A6,6,0,1,1,772.5,811.5"></path><path id="kity_path_451" fill="none" stroke="gray"></path></g><path id="node_outline45" fill="none" stroke="none" d="M697.5,800.5h58a5,5,0,0,1,5,5v12a5,5,0,0,1,-5,5h-58a5,5,0,0,1,-5,-5v-12a5,5,0,0,1,5,-5z"></path><g id="node_text45" fill="black"><text id="kity_text_233" text-rendering="inherit" font-size="12" dy=".8em" y="803.7000000476837" x="702.5">命令模式</text></g></g><g id="minder_node48"><g id="node_expander45" display="none" style="cursor: pointer;"><path id="kity_path_453" fill="white" stroke="gray" d="M772.5,863.5A6,6,0,1,1,760.5,863.5A6,6,0,1,1,772.5,863.5"></path><path id="kity_path_454" fill="none" stroke="gray"></path></g><path id="node_outline46" fill="none" stroke="none" d="M685.5,852.5h70a5,5,0,0,1,5,5v12a5,5,0,0,1,-5,5h-70a5,5,0,0,1,-5,-5v-12a5,5,0,0,1,5,-5z"></path><g id="node_text46" fill="black"><text id="kity_text_235" text-rendering="inherit" font-size="12" dy=".8em" y="855.7000000476837" x="690.5">迭代器模式</text></g></g><g id="minder_node49"><g id="node_expander46" display="none" style="cursor: pointer;"><path id="kity_path_456" fill="white" stroke="gray" d="M772.5,915.5A6,6,0,1,1,760.5,915.5A6,6,0,1,1,772.5,915.5"></path><path id="kity_path_457" fill="none" stroke="gray"></path></g><path id="node_outline47" fill="none" stroke="none" d="M685.5,904.5h70a5,5,0,0,1,5,5v12a5,5,0,0,1,-5,5h-70a5,5,0,0,1,-5,-5v-12a5,5,0,0,1,5,-5z"></path><g id="node_text47" fill="black"><text id="kity_text_237" text-rendering="inherit" font-size="12" dy=".8em" y="907.7000000476837" x="690.5">中介者模式</text></g></g><g id="minder_node50"><g id="node_expander47" display="none" style="cursor: pointer;"><path id="kity_path_459" fill="white" stroke="gray" d="M772.5,967.5A6,6,0,1,1,760.5,967.5A6,6,0,1,1,772.5,967.5"></path><path id="kity_path_460" fill="none" stroke="gray"></path></g><path id="node_outline48" fill="none" stroke="none" d="M684.5,956.5h71a5,5,0,0,1,5,5v12a5,5,0,0,1,-5,5h-71a5,5,0,0,1,-5,-5v-12a5,5,0,0,1,5,-5z"></path><g id="node_text48" fill="black"><text id="kity_text_239" text-rendering="inherit" font-size="12" dy=".8em" y="959.7000000476837" x="689.5">备忘录模式</text></g></g><g id="minder_node51"><g id="node_expander49" style="cursor: pointer;"><path id="kity_path_465" fill="white" stroke="gray" d="M772.5,1019.5A6,6,0,1,1,760.5,1019.5A6,6,0,1,1,772.5,1019.5"></path><path id="kity_path_466" fill="none" stroke="gray" d="M762,1019.5L771,1019.5"></path></g><path id="node_outline50" fill="none" stroke="none" d="M584.5,1008.5h171a5,5,0,0,1,5,5v12a5,5,0,0,1,-5,5h-171a5,5,0,0,1,-5,-5v-12a5,5,0,0,1,5,-5z"></path><g id="node_text50" fill="black"><text id="kity_text_243" text-rendering="inherit" font-size="12" dy=".8em" y="1011.7000000476837" x="589.5">观察者模式（发布-订阅模式）</text></g></g><g id="minder_node52"><g id="node_expander48" display="none" style="cursor: pointer;"><path id="kity_path_462" fill="white" stroke="gray" d="M551.5,1019.5A6,6,0,1,1,539.5,1019.5A6,6,0,1,1,551.5,1019.5"></path><path id="kity_path_463" fill="none" stroke="gray"></path></g><path id="node_outline49" fill="none" stroke="none" d="M236.5,1008.5h298a5,5,0,0,1,5,5v12a5,5,0,0,1,-5,5h-298a5,5,0,0,1,-5,-5v-12a5,5,0,0,1,5,-5z"></path><g id="node_text49" fill="black"><text id="kity_text_241" text-rendering="inherit" font-size="12" dy=".8em" y="1011.7000000476837" x="241.5">当发布者状态发生改变时，所有订阅者都会被自动更新</text></g></g><g id="minder_node53"><g id="node_expander50" display="none" style="cursor: pointer;"><path id="kity_path_468" fill="white" stroke="gray" d="M772.5,1071.5A6,6,0,1,1,760.5,1071.5A6,6,0,1,1,772.5,1071.5"></path><path id="kity_path_469" fill="none" stroke="gray"></path></g><path id="node_outline51" fill="none" stroke="none" d="M697.5,1060.5h58a5,5,0,0,1,5,5v12a5,5,0,0,1,-5,5h-58a5,5,0,0,1,-5,-5v-12a5,5,0,0,1,5,-5z"></path><g id="node_text51" fill="black"><text id="kity_text_245" text-rendering="inherit" font-size="12" dy=".8em" y="1063.7000000476837" x="702.5">状态模式</text></g></g><g id="minder_node54"><g id="node_expander53" style="cursor: pointer;"><path id="kity_path_477" fill="white" stroke="gray" d="M772.5,1123.5A6,6,0,1,1,760.5,1123.5A6,6,0,1,1,772.5,1123.5"></path><path id="kity_path_478" fill="none" stroke="gray" d="M762,1123.5L771,1123.5"></path></g><path id="node_outline54" fill="none" stroke="none" d="M697.5,1112.5h58a5,5,0,0,1,5,5v12a5,5,0,0,1,-5,5h-58a5,5,0,0,1,-5,-5v-12a5,5,0,0,1,5,-5z"></path><g id="node_text54" fill="black"><text id="kity_text_251" text-rendering="inherit" font-size="12" dy=".8em" y="1115.7000000476837" x="702.5">策略模式</text></g></g><g id="minder_node55"><g id="node_expander52" style="cursor: pointer;"><path id="kity_path_474" fill="white" stroke="gray" d="M664.5,1123.5A6,6,0,1,1,652.5,1123.5A6,6,0,1,1,664.5,1123.5"></path><path id="kity_path_475" fill="none" stroke="gray" d="M654,1123.5L663,1123.5M658.5,1119L658.5,1128"></path></g><path id="node_outline53" fill="none" stroke="none" d="M25.5,1112.5h622a5,5,0,0,1,5,5v12a5,5,0,0,1,-5,5h-622a5,5,0,0,1,-5,-5v-12a5,5,0,0,1,5,-5z"></path><g id="node_text53" fill="black"><text id="kity_text_249" text-rendering="inherit" font-size="12" dy=".8em" y="1115.7000000476837" x="30.5">定义一系列的算法，把它们一个个封装起来，并且使它们可相互替换。本模式使得算法可独立于使用它的客户而变化</text></g></g><g id="minder_node56" display="none"><g id="node_expander51" display="none" style="cursor: pointer;"><path id="kity_path_471" fill="white" stroke="gray" d="M-7.5,1123.5A6,6,0,1,1,-19.5,1123.5A6,6,0,1,1,-7.5,1123.5"></path><path id="kity_path_472" fill="none" stroke="gray"></path></g><path id="node_outline52" fill="none" stroke="none" d="M-24.5,1112.5h622a5,5,0,0,1,5,5v12a5,5,0,0,1,-5,5h-622a5,5,0,0,1,-5,-5v-12a5,5,0,0,1,5,-5z"></path><g id="node_text52" fill="black"><text id="kity_text_247" text-rendering="inherit" font-size="12" dy=".8em" y="1115.7000000476837" x="-19.5">定义一系列的算法，把它们一个个封装起来，并且使它们可相互替换。本模式使得算法可独立于使用它的客户而变化</text></g></g><g id="minder_node57"><g id="node_expander54" display="none" style="cursor: pointer;"><path id="kity_path_480" fill="white" stroke="gray" d="M772.5,1175.5A6,6,0,1,1,760.5,1175.5A6,6,0,1,1,772.5,1175.5"></path><path id="kity_path_481" fill="none" stroke="gray"></path></g><path id="node_outline55" fill="none" stroke="none" d="M685.5,1164.5h70a5,5,0,0,1,5,5v12a5,5,0,0,1,-5,5h-70a5,5,0,0,1,-5,-5v-12a5,5,0,0,1,5,-5z"></path><g id="node_text55" fill="black"><text id="kity_text_253" text-rendering="inherit" font-size="12" dy=".8em" y="1167.7000000476837" x="690.5">访问者模式</text></g></g><g id="minder_node58"><g id="node_expander56" style="cursor: pointer;"><path id="kity_path_486" fill="white" stroke="gray" d="M772.5,1227.5A6,6,0,1,1,760.5,1227.5A6,6,0,1,1,772.5,1227.5"></path><path id="kity_path_487" fill="none" stroke="gray" d="M762,1227.5L771,1227.5"></path></g><path id="node_outline57" fill="none" stroke="none" d="M672.5,1216.5h83a5,5,0,0,1,5,5v12a5,5,0,0,1,-5,5h-83a5,5,0,0,1,-5,-5v-12a5,5,0,0,1,5,-5z"></path><g id="node_text57" fill="black"><text id="kity_text_257" text-rendering="inherit" font-size="12" dy=".8em" y="1219.7000000476837" x="677.5">模版方法模式</text></g></g><g id="minder_node59"><g id="node_expander55" display="none" style="cursor: pointer;"><path id="kity_path_483" fill="white" stroke="gray" d="M639.5,1227.5A6,6,0,1,1,627.5,1227.5A6,6,0,1,1,639.5,1227.5"></path><path id="kity_path_484" fill="none" stroke="gray"></path></g><path id="node_outline56" fill="none" stroke="none" d="M300.5,1216.5h322a5,5,0,0,1,5,5v12a5,5,0,0,1,-5,5h-322a5,5,0,0,1,-5,-5v-12a5,5,0,0,1,5,-5z"></path><g id="node_text56" fill="black"><text id="kity_text_255" text-rendering="inherit" font-size="12" dy=".8em" y="1219.7000000476837" x="305.5">定义一个操作中的算法的骨架，而将一些步骤延迟到子类中</text></g></g></g></g></svg>